<?xml version="1.0" encoding="utf-8" standalone="no"?>
<!DOCTYPE svg PUBLIC "-//W3C//DTD SVG 1.1//EN"
  "http://www.w3.org/Graphics/SVG/1.1/DTD/svg11.dtd">
<!-- Created with matplotlib (https://matplotlib.org/) -->
<svg height="288pt" version="1.1" viewBox="0 0 432 288" width="432pt" xmlns="http://www.w3.org/2000/svg" xmlns:xlink="http://www.w3.org/1999/xlink">
 <metadata>
  <rdf:RDF xmlns:cc="http://creativecommons.org/ns#" xmlns:dc="http://purl.org/dc/elements/1.1/" xmlns:rdf="http://www.w3.org/1999/02/22-rdf-syntax-ns#">
   <cc:Work>
    <dc:type rdf:resource="http://purl.org/dc/dcmitype/StillImage"/>
    <dc:date>2021-04-26T03:52:37.095340</dc:date>
    <dc:format>image/svg+xml</dc:format>
    <dc:creator>
     <cc:Agent>
      <dc:title>Matplotlib v3.3.4, https://matplotlib.org/</dc:title>
     </cc:Agent>
    </dc:creator>
   </cc:Work>
  </rdf:RDF>
 </metadata>
 <defs>
  <style type="text/css">*{stroke-linecap:butt;stroke-linejoin:round;}</style>
 </defs>
 <g id="figure_1">
  <g id="patch_1">
   <path d="M 0 288 
L 432 288 
L 432 0 
L 0 0 
z
" style="fill:none;"/>
  </g>
  <g id="axes_1">
   <g id="patch_2">
    <path d="M 112.68 252 
L 330.12 252 
L 330.12 34.56 
L 112.68 34.56 
z
" style="fill:#ffffff;"/>
   </g>
   <g id="PathCollection_1">
    <defs>
     <path d="M 0 3 
C 0.795609 3 1.55874 2.683901 2.12132 2.12132 
C 2.683901 1.55874 3 0.795609 3 0 
C 3 -0.795609 2.683901 -1.55874 2.12132 -2.12132 
C 1.55874 -2.683901 0.795609 -3 0 -3 
C -0.795609 -3 -1.55874 -2.683901 -2.12132 -2.12132 
C -2.683901 -1.55874 -3 -0.795609 -3 0 
C -3 0.795609 -2.683901 1.55874 -2.12132 2.12132 
C -1.55874 2.683901 -0.795609 3 0 3 
z
" id="m410dbd1b6e" style="stroke:#9467bd;"/>
    </defs>
    <g clip-path="url(#pb68ef5b7a7)">
     <use style="fill:#9467bd;stroke:#9467bd;" x="156.561243" xlink:href="#m410dbd1b6e" y="210.847608"/>
     <use style="fill:#9467bd;stroke:#9467bd;" x="161.303285" xlink:href="#m410dbd1b6e" y="204.58591"/>
     <use style="fill:#9467bd;stroke:#9467bd;" x="154.895745" xlink:href="#m410dbd1b6e" y="210.355584"/>
     <use style="fill:#9467bd;stroke:#9467bd;" x="158.643115" xlink:href="#m410dbd1b6e" y="204.717033"/>
     <use style="fill:#9467bd;stroke:#9467bd;" x="157.555915" xlink:href="#m410dbd1b6e" y="207.68945"/>
     <use style="fill:#9467bd;stroke:#9467bd;" x="159.730315" xlink:href="#m410dbd1b6e" y="209.178148"/>
     <use style="fill:#9467bd;stroke:#9467bd;" x="150.824528" xlink:href="#m410dbd1b6e" y="214.067693"/>
     <use style="fill:#9467bd;stroke:#9467bd;" x="170.856766" xlink:href="#m410dbd1b6e" y="201.696463"/>
     <use style="fill:#9467bd;stroke:#9467bd;" x="160.40114" xlink:href="#m410dbd1b6e" y="210.557766"/>
     <use style="fill:#9467bd;stroke:#9467bd;" x="158.45806" xlink:href="#m410dbd1b6e" y="209.507135"/>
     <use style="fill:#9467bd;stroke:#9467bd;" x="159.406468" xlink:href="#m410dbd1b6e" y="208.888428"/>
     <use style="fill:#9467bd;stroke:#9467bd;" x="158.249872" xlink:href="#m410dbd1b6e" y="208.913814"/>
     <use style="fill:#9467bd;stroke:#9467bd;" x="170.78737" xlink:href="#m410dbd1b6e" y="196.478756"/>
     <use style="fill:#9467bd;stroke:#9467bd;" x="151.102111" xlink:href="#m410dbd1b6e" y="214.258229"/>
     <use style="fill:#9467bd;stroke:#9467bd;" x="173.262485" xlink:href="#m410dbd1b6e" y="197.774096"/>
     <use style="fill:#9467bd;stroke:#9467bd;" x="170.3016" xlink:href="#m410dbd1b6e" y="201.186265"/>
     <use style="fill:#9467bd;stroke:#9467bd;" x="159.105753" xlink:href="#m410dbd1b6e" y="206.66206"/>
     <use style="fill:#9467bd;stroke:#9467bd;" x="153.600357" xlink:href="#m410dbd1b6e" y="212.445123"/>
     <use style="fill:#9467bd;stroke:#9467bd;" x="150.546945" xlink:href="#m410dbd1b6e" y="215.534203"/>
     <use style="fill:#9467bd;stroke:#9467bd;" x="156.954485" xlink:href="#m410dbd1b6e" y="209.214023"/>
     <use style="fill:#9467bd;stroke:#9467bd;" x="158.596851" xlink:href="#m410dbd1b6e" y="207.860083"/>
     <use style="fill:#9467bd;stroke:#9467bd;" x="152.351234" xlink:href="#m410dbd1b6e" y="212.159192"/>
     <use style="fill:#9467bd;stroke:#9467bd;" x="155.103932" xlink:href="#m410dbd1b6e" y="212.019298"/>
     <use style="fill:#9467bd;stroke:#9467bd;" x="157.532783" xlink:href="#m410dbd1b6e" y="207.574521"/>
     <use style="fill:#9467bd;stroke:#9467bd;" x="181.566843" xlink:href="#m410dbd1b6e" y="189.318863"/>
     <use style="fill:#9467bd;stroke:#9467bd;" x="154.548766" xlink:href="#m410dbd1b6e" y="211.854108"/>
     <use style="fill:#9467bd;stroke:#9467bd;" x="150.986451" xlink:href="#m410dbd1b6e" y="213.683943"/>
     <use style="fill:#9467bd;stroke:#9467bd;" x="157.995421" xlink:href="#m410dbd1b6e" y="210.924257"/>
     <use style="fill:#9467bd;stroke:#9467bd;" x="153.646621" xlink:href="#m410dbd1b6e" y="213.023983"/>
     <use style="fill:#9467bd;stroke:#9467bd;" x="153.669753" xlink:href="#m410dbd1b6e" y="214.89391"/>
     <use style="fill:#9467bd;stroke:#9467bd;" x="164.125379" xlink:href="#m410dbd1b6e" y="205.53433"/>
     <use style="fill:#9467bd;stroke:#9467bd;" x="161.673396" xlink:href="#m410dbd1b6e" y="204.608287"/>
     <use style="fill:#9467bd;stroke:#9467bd;" x="157.810366" xlink:href="#m410dbd1b6e" y="209.372102"/>
     <use style="fill:#9467bd;stroke:#9467bd;" x="151.425957" xlink:href="#m410dbd1b6e" y="213.108588"/>
     <use style="fill:#9467bd;stroke:#9467bd;" x="162.159166" xlink:href="#m410dbd1b6e" y="208.025542"/>
     <use style="fill:#9467bd;stroke:#9467bd;" x="153.692885" xlink:href="#m410dbd1b6e" y="212.438543"/>
     <use style="fill:#9467bd;stroke:#9467bd;" x="151.888596" xlink:href="#m410dbd1b6e" y="213.780107"/>
     <use style="fill:#9467bd;stroke:#9467bd;" x="163.477685" xlink:href="#m410dbd1b6e" y="201.799286"/>
     <use style="fill:#9467bd;stroke:#9467bd;" x="160.817515" xlink:href="#m410dbd1b6e" y="207.385256"/>
     <use style="fill:#9467bd;stroke:#9467bd;" x="154.433106" xlink:href="#m410dbd1b6e" y="213.08037"/>
     <use style="fill:#9467bd;stroke:#9467bd;" x="161.071966" xlink:href="#m410dbd1b6e" y="208.535964"/>
     <use style="fill:#9467bd;stroke:#9467bd;" x="170.509787" xlink:href="#m410dbd1b6e" y="197.095203"/>
     <use style="fill:#9467bd;stroke:#9467bd;" x="151.148374" xlink:href="#m410dbd1b6e" y="214.45524"/>
     <use style="fill:#9467bd;stroke:#9467bd;" x="158.94383" xlink:href="#m410dbd1b6e" y="191.688496"/>
     <use style="fill:#9467bd;stroke:#9467bd;" x="168.659234" xlink:href="#m410dbd1b6e" y="205.352981"/>
     <use style="fill:#9467bd;stroke:#9467bd;" x="151.310298" xlink:href="#m410dbd1b6e" y="215.091033"/>
     <use style="fill:#9467bd;stroke:#9467bd;" x="172.984902" xlink:href="#m410dbd1b6e" y="196.419162"/>
     <use style="fill:#9467bd;stroke:#9467bd;" x="160.169821" xlink:href="#m410dbd1b6e" y="209.55852"/>
     <use style="fill:#9467bd;stroke:#9467bd;" x="151.171506" xlink:href="#m410dbd1b6e" y="213.900843"/>
     <use style="fill:#9467bd;stroke:#9467bd;" x="155.844153" xlink:href="#m410dbd1b6e" y="208.543851"/>
     <use style="fill:#9467bd;stroke:#9467bd;" x="164.217906" xlink:href="#m410dbd1b6e" y="201.610286"/>
     <use style="fill:#9467bd;stroke:#9467bd;" x="163.709004" xlink:href="#m410dbd1b6e" y="200.756415"/>
     <use style="fill:#9467bd;stroke:#9467bd;" x="150.708868" xlink:href="#m410dbd1b6e" y="213.452946"/>
     <use style="fill:#9467bd;stroke:#9467bd;" x="175.13617" xlink:href="#m410dbd1b6e" y="188.23782"/>
     <use style="fill:#9467bd;stroke:#9467bd;" x="155.103932" xlink:href="#m410dbd1b6e" y="206.889369"/>
     <use style="fill:#9467bd;stroke:#9467bd;" x="170.810502" xlink:href="#m410dbd1b6e" y="199.684888"/>
     <use style="fill:#9467bd;stroke:#9467bd;" x="152.073651" xlink:href="#m410dbd1b6e" y="212.26588"/>
     <use style="fill:#9467bd;stroke:#9467bd;" x="151.102111" xlink:href="#m410dbd1b6e" y="212.864744"/>
     <use style="fill:#9467bd;stroke:#9467bd;" x="161.557736" xlink:href="#m410dbd1b6e" y="206.065575"/>
     <use style="fill:#9467bd;stroke:#9467bd;" x="159.869106" xlink:href="#m410dbd1b6e" y="207.797944"/>
     <use style="fill:#9467bd;stroke:#9467bd;" x="151.842332" xlink:href="#m410dbd1b6e" y="214.662695"/>
     <use style="fill:#9467bd;stroke:#9467bd;" x="168.381651" xlink:href="#m410dbd1b6e" y="195.845921"/>
     <use style="fill:#9467bd;stroke:#9467bd;" x="175.714468" xlink:href="#m410dbd1b6e" y="194.802805"/>
     <use style="fill:#9467bd;stroke:#9467bd;" x="171.180613" xlink:href="#m410dbd1b6e" y="196.472231"/>
     <use style="fill:#9467bd;stroke:#9467bd;" x="162.020374" xlink:href="#m410dbd1b6e" y="205.316989"/>
     <use style="fill:#9467bd;stroke:#9467bd;" x="159.4296" xlink:href="#m410dbd1b6e" y="203.570206"/>
     <use style="fill:#9467bd;stroke:#9467bd;" x="152.9064" xlink:href="#m410dbd1b6e" y="213.564994"/>
     <use style="fill:#9467bd;stroke:#9467bd;" x="157.902894" xlink:href="#m410dbd1b6e" y="209.77828"/>
     <use style="fill:#9467bd;stroke:#9467bd;" x="151.657277" xlink:href="#m410dbd1b6e" y="213.044819"/>
     <use style="fill:#9467bd;stroke:#9467bd;" x="153.577226" xlink:href="#m410dbd1b6e" y="214.125342"/>
     <use style="fill:#9467bd;stroke:#9467bd;" x="155.844153" xlink:href="#m410dbd1b6e" y="212.722115"/>
     <use style="fill:#9467bd;stroke:#9467bd;" x="151.70354" xlink:href="#m410dbd1b6e" y="213.503279"/>
     <use style="fill:#9467bd;stroke:#9467bd;" x="155.0808" xlink:href="#m410dbd1b6e" y="212.182737"/>
     <use style="fill:#9467bd;stroke:#9467bd;" x="166.577362" xlink:href="#m410dbd1b6e" y="195.069993"/>
     <use style="fill:#9467bd;stroke:#9467bd;" x="152.837004" xlink:href="#m410dbd1b6e" y="212.700607"/>
     <use style="fill:#9467bd;stroke:#9467bd;" x="158.087949" xlink:href="#m410dbd1b6e" y="210.352058"/>
     <use style="fill:#9467bd;stroke:#9467bd;" x="154.155523" xlink:href="#m410dbd1b6e" y="211.37642"/>
     <use style="fill:#9467bd;stroke:#9467bd;" x="153.322774" xlink:href="#m410dbd1b6e" y="212.964582"/>
     <use style="fill:#9467bd;stroke:#9467bd;" x="166.531098" xlink:href="#m410dbd1b6e" y="199.269596"/>
     <use style="fill:#9467bd;stroke:#9467bd;" x="155.520306" xlink:href="#m410dbd1b6e" y="211.733504"/>
     <use style="fill:#9467bd;stroke:#9467bd;" x="155.057668" xlink:href="#m410dbd1b6e" y="211.63964"/>
     <use style="fill:#9467bd;stroke:#9467bd;" x="155.011404" xlink:href="#m410dbd1b6e" y="212.623105"/>
     <use style="fill:#9467bd;stroke:#9467bd;" x="153.646621" xlink:href="#m410dbd1b6e" y="211.706874"/>
     <use style="fill:#9467bd;stroke:#9467bd;" x="152.466894" xlink:href="#m410dbd1b6e" y="212.510014"/>
     <use style="fill:#9467bd;stroke:#9467bd;" x="170.625447" xlink:href="#m410dbd1b6e" y="193.324901"/>
     <use style="fill:#9467bd;stroke:#9467bd;" x="164.287302" xlink:href="#m410dbd1b6e" y="204.223229"/>
     <use style="fill:#9467bd;stroke:#9467bd;" x="160.771251" xlink:href="#m410dbd1b6e" y="209.891297"/>
     <use style="fill:#9467bd;stroke:#9467bd;" x="153.623489" xlink:href="#m410dbd1b6e" y="211.360897"/>
     <use style="fill:#9467bd;stroke:#9467bd;" x="152.42063" xlink:href="#m410dbd1b6e" y="211.662181"/>
     <use style="fill:#9467bd;stroke:#9467bd;" x="155.751626" xlink:href="#m410dbd1b6e" y="211.221668"/>
     <use style="fill:#9467bd;stroke:#9467bd;" x="152.212443" xlink:href="#m410dbd1b6e" y="216.550955"/>
     <use style="fill:#9467bd;stroke:#9467bd;" x="153.530962" xlink:href="#m410dbd1b6e" y="208.725705"/>
     <use style="fill:#9467bd;stroke:#9467bd;" x="153.39217" xlink:href="#m410dbd1b6e" y="212.880151"/>
     <use style="fill:#9467bd;stroke:#9467bd;" x="171.203745" xlink:href="#m410dbd1b6e" y="197.23205"/>
     <use style="fill:#9467bd;stroke:#9467bd;" x="161.233889" xlink:href="#m410dbd1b6e" y="195.626319"/>
     <use style="fill:#9467bd;stroke:#9467bd;" x="150.361889" xlink:href="#m410dbd1b6e" y="213.741563"/>
     <use style="fill:#9467bd;stroke:#9467bd;" x="155.0808" xlink:href="#m410dbd1b6e" y="210.162315"/>
     <use style="fill:#9467bd;stroke:#9467bd;" x="155.774757" xlink:href="#m410dbd1b6e" y="212.870174"/>
     <use style="fill:#9467bd;stroke:#9467bd;" x="168.774894" xlink:href="#m410dbd1b6e" y="197.846911"/>
     <use style="fill:#9467bd;stroke:#9467bd;" x="154.664426" xlink:href="#m410dbd1b6e" y="211.270074"/>
     <use style="fill:#9467bd;stroke:#9467bd;" x="162.621804" xlink:href="#m410dbd1b6e" y="205.739711"/>
     <use style="fill:#9467bd;stroke:#9467bd;" x="156.376187" xlink:href="#m410dbd1b6e" y="210.722373"/>
     <use style="fill:#9467bd;stroke:#9467bd;" x="150.870791" xlink:href="#m410dbd1b6e" y="213.073921"/>
     <use style="fill:#9467bd;stroke:#9467bd;" x="154.780085" xlink:href="#m410dbd1b6e" y="211.738316"/>
     <use style="fill:#9467bd;stroke:#9467bd;" x="164.842468" xlink:href="#m410dbd1b6e" y="200.204055"/>
     <use style="fill:#9467bd;stroke:#9467bd;" x="154.386843" xlink:href="#m410dbd1b6e" y="211.060568"/>
     <use style="fill:#9467bd;stroke:#9467bd;" x="155.312119" xlink:href="#m410dbd1b6e" y="211.998505"/>
     <use style="fill:#9467bd;stroke:#9467bd;" x="156.908221" xlink:href="#m410dbd1b6e" y="219.156636"/>
     <use style="fill:#9467bd;stroke:#9467bd;" x="155.335251" xlink:href="#m410dbd1b6e" y="210.019152"/>
     <use style="fill:#9467bd;stroke:#9467bd;" x="169.33006" xlink:href="#m410dbd1b6e" y="202.465403"/>
     <use style="fill:#9467bd;stroke:#9467bd;" x="161.696528" xlink:href="#m410dbd1b6e" y="207.687243"/>
     <use style="fill:#9467bd;stroke:#9467bd;" x="163.824664" xlink:href="#m410dbd1b6e" y="197.815447"/>
     <use style="fill:#9467bd;stroke:#9467bd;" x="153.924204" xlink:href="#m410dbd1b6e" y="213.408869"/>
     <use style="fill:#9467bd;stroke:#9467bd;" x="152.443762" xlink:href="#m410dbd1b6e" y="213.37656"/>
     <use style="fill:#9467bd;stroke:#9467bd;" x="151.425957" xlink:href="#m410dbd1b6e" y="213.672457"/>
     <use style="fill:#9467bd;stroke:#9467bd;" x="156.445583" xlink:href="#m410dbd1b6e" y="213.2367"/>
     <use style="fill:#9467bd;stroke:#9467bd;" x="157.000749" xlink:href="#m410dbd1b6e" y="211.657757"/>
     <use style="fill:#9467bd;stroke:#9467bd;" x="175.298094" xlink:href="#m410dbd1b6e" y="195.534215"/>
     <use style="fill:#9467bd;stroke:#9467bd;" x="154.456238" xlink:href="#m410dbd1b6e" y="210.202511"/>
     <use style="fill:#9467bd;stroke:#9467bd;" x="166.184119" xlink:href="#m410dbd1b6e" y="205.140515"/>
     <use style="fill:#9467bd;stroke:#9467bd;" x="150.708868" xlink:href="#m410dbd1b6e" y="213.235929"/>
     <use style="fill:#9467bd;stroke:#9467bd;" x="151.240902" xlink:href="#m410dbd1b6e" y="214.037845"/>
     <use style="fill:#9467bd;stroke:#9467bd;" x="163.89406" xlink:href="#m410dbd1b6e" y="199.705387"/>
     <use style="fill:#9467bd;stroke:#9467bd;" x="171.897702" xlink:href="#m410dbd1b6e" y="197.873269"/>
     <use style="fill:#9467bd;stroke:#9467bd;" x="162.598672" xlink:href="#m410dbd1b6e" y="203.041955"/>
     <use style="fill:#9467bd;stroke:#9467bd;" x="168.72863" xlink:href="#m410dbd1b6e" y="196.361949"/>
     <use style="fill:#9467bd;stroke:#9467bd;" x="160.424272" xlink:href="#m410dbd1b6e" y="206.514619"/>
     <use style="fill:#9467bd;stroke:#9467bd;" x="169.954621" xlink:href="#m410dbd1b6e" y="202.287149"/>
     <use style="fill:#9467bd;stroke:#9467bd;" x="170.047149" xlink:href="#m410dbd1b6e" y="200.86754"/>
     <use style="fill:#9467bd;stroke:#9467bd;" x="154.687557" xlink:href="#m410dbd1b6e" y="210.269587"/>
     <use style="fill:#9467bd;stroke:#9467bd;" x="158.365532" xlink:href="#m410dbd1b6e" y="209.730131"/>
     <use style="fill:#9467bd;stroke:#9467bd;" x="151.310298" xlink:href="#m410dbd1b6e" y="213.924944"/>
     <use style="fill:#9467bd;stroke:#9467bd;" x="166.693021" xlink:href="#m410dbd1b6e" y="202.273395"/>
     <use style="fill:#9467bd;stroke:#9467bd;" x="160.771251" xlink:href="#m410dbd1b6e" y="203.965465"/>
     <use style="fill:#9467bd;stroke:#9467bd;" x="152.143047" xlink:href="#m410dbd1b6e" y="213.694887"/>
     <use style="fill:#9467bd;stroke:#9467bd;" x="155.0808" xlink:href="#m410dbd1b6e" y="210.832997"/>
     <use style="fill:#9467bd;stroke:#9467bd;" x="160.586196" xlink:href="#m410dbd1b6e" y="204.699557"/>
     <use style="fill:#9467bd;stroke:#9467bd;" x="172.568528" xlink:href="#m410dbd1b6e" y="194.040428"/>
     <use style="fill:#9467bd;stroke:#9467bd;" x="164.726809" xlink:href="#m410dbd1b6e" y="207.454207"/>
     <use style="fill:#9467bd;stroke:#9467bd;" x="153.739149" xlink:href="#m410dbd1b6e" y="213.307613"/>
     <use style="fill:#9467bd;stroke:#9467bd;" x="164.819336" xlink:href="#m410dbd1b6e" y="201.917805"/>
     <use style="fill:#9467bd;stroke:#9467bd;" x="159.475864" xlink:href="#m410dbd1b6e" y="209.144121"/>
     <use style="fill:#9467bd;stroke:#9467bd;" x="159.892238" xlink:href="#m410dbd1b6e" y="206.30387"/>
     <use style="fill:#9467bd;stroke:#9467bd;" x="153.762281" xlink:href="#m410dbd1b6e" y="210.78676"/>
     <use style="fill:#9467bd;stroke:#9467bd;" x="153.160851" xlink:href="#m410dbd1b6e" y="213.075872"/>
     <use style="fill:#9467bd;stroke:#9467bd;" x="153.692885" xlink:href="#m410dbd1b6e" y="212.51332"/>
     <use style="fill:#9467bd;stroke:#9467bd;" x="158.22674" xlink:href="#m410dbd1b6e" y="205.14143"/>
     <use style="fill:#9467bd;stroke:#9467bd;" x="153.137719" xlink:href="#m410dbd1b6e" y="213.518679"/>
     <use style="fill:#9467bd;stroke:#9467bd;" x="151.796068" xlink:href="#m410dbd1b6e" y="214.798519"/>
     <use style="fill:#9467bd;stroke:#9467bd;" x="164.171643" xlink:href="#m410dbd1b6e" y="206.364037"/>
     <use style="fill:#9467bd;stroke:#9467bd;" x="150.014911" xlink:href="#m410dbd1b6e" y="213.122787"/>
     <use style="fill:#9467bd;stroke:#9467bd;" x="155.127064" xlink:href="#m410dbd1b6e" y="212.013637"/>
     <use style="fill:#9467bd;stroke:#9467bd;" x="166.253515" xlink:href="#m410dbd1b6e" y="206.671708"/>
     <use style="fill:#9467bd;stroke:#9467bd;" x="152.813872" xlink:href="#m410dbd1b6e" y="212.442444"/>
     <use style="fill:#9467bd;stroke:#9467bd;" x="158.041685" xlink:href="#m410dbd1b6e" y="208.85092"/>
     <use style="fill:#9467bd;stroke:#9467bd;" x="150.338757" xlink:href="#m410dbd1b6e" y="215.651804"/>
     <use style="fill:#9467bd;stroke:#9467bd;" x="161.835319" xlink:href="#m410dbd1b6e" y="203.935365"/>
     <use style="fill:#9467bd;stroke:#9467bd;" x="154.201787" xlink:href="#m410dbd1b6e" y="211.542827"/>
     <use style="fill:#9467bd;stroke:#9467bd;" x="152.998928" xlink:href="#m410dbd1b6e" y="212.211487"/>
     <use style="fill:#9467bd;stroke:#9467bd;" x="165.582689" xlink:href="#m410dbd1b6e" y="205.305809"/>
     <use style="fill:#9467bd;stroke:#9467bd;" x="170.278468" xlink:href="#m410dbd1b6e" y="201.865817"/>
     <use style="fill:#9467bd;stroke:#9467bd;" x="155.358383" xlink:href="#m410dbd1b6e" y="209.484994"/>
     <use style="fill:#9467bd;stroke:#9467bd;" x="161.927847" xlink:href="#m410dbd1b6e" y="204.201745"/>
     <use style="fill:#9467bd;stroke:#9467bd;" x="156.353055" xlink:href="#m410dbd1b6e" y="195.675481"/>
     <use style="fill:#9467bd;stroke:#9467bd;" x="171.550723" xlink:href="#m410dbd1b6e" y="191.820342"/>
     <use style="fill:#9467bd;stroke:#9467bd;" x="170.047149" xlink:href="#m410dbd1b6e" y="200.56104"/>
     <use style="fill:#9467bd;stroke:#9467bd;" x="162.876255" xlink:href="#m410dbd1b6e" y="203.701256"/>
     <use style="fill:#9467bd;stroke:#9467bd;" x="162.136034" xlink:href="#m410dbd1b6e" y="204.543955"/>
     <use style="fill:#9467bd;stroke:#9467bd;" x="150.732" xlink:href="#m410dbd1b6e" y="215.708873"/>
     <use style="fill:#9467bd;stroke:#9467bd;" x="151.888596" xlink:href="#m410dbd1b6e" y="213.655407"/>
     <use style="fill:#9467bd;stroke:#9467bd;" x="159.475864" xlink:href="#m410dbd1b6e" y="208.534453"/>
     <use style="fill:#9467bd;stroke:#9467bd;" x="151.402826" xlink:href="#m410dbd1b6e" y="214.723494"/>
     <use style="fill:#9467bd;stroke:#9467bd;" x="166.137855" xlink:href="#m410dbd1b6e" y="200.274218"/>
     <use style="fill:#9467bd;stroke:#9467bd;" x="153.207115" xlink:href="#m410dbd1b6e" y="213.753254"/>
     <use style="fill:#9467bd;stroke:#9467bd;" x="160.308613" xlink:href="#m410dbd1b6e" y="203.676429"/>
     <use style="fill:#9467bd;stroke:#9467bd;" x="151.148374" xlink:href="#m410dbd1b6e" y="213.318002"/>
     <use style="fill:#9467bd;stroke:#9467bd;" x="158.411796" xlink:href="#m410dbd1b6e" y="210.252878"/>
     <use style="fill:#9467bd;stroke:#9467bd;" x="151.518485" xlink:href="#m410dbd1b6e" y="212.917139"/>
     <use style="fill:#9467bd;stroke:#9467bd;" x="160.678723" xlink:href="#m410dbd1b6e" y="204.167546"/>
     <use style="fill:#9467bd;stroke:#9467bd;" x="154.47937" xlink:href="#m410dbd1b6e" y="213.213035"/>
     <use style="fill:#9467bd;stroke:#9467bd;" x="164.125379" xlink:href="#m410dbd1b6e" y="200.431597"/>
     <use style="fill:#9467bd;stroke:#9467bd;" x="167.988409" xlink:href="#m410dbd1b6e" y="201.971092"/>
     <use style="fill:#9467bd;stroke:#9467bd;" x="155.589702" xlink:href="#m410dbd1b6e" y="210.317141"/>
     <use style="fill:#9467bd;stroke:#9467bd;" x="150.199966" xlink:href="#m410dbd1b6e" y="214.827716"/>
     <use style="fill:#9467bd;stroke:#9467bd;" x="152.582553" xlink:href="#m410dbd1b6e" y="213.566211"/>
     <use style="fill:#9467bd;stroke:#9467bd;" x="157.278332" xlink:href="#m410dbd1b6e" y="209.47295"/>
     <use style="fill:#9467bd;stroke:#9467bd;" x="157.116409" xlink:href="#m410dbd1b6e" y="207.729238"/>
     <use style="fill:#9467bd;stroke:#9467bd;" x="151.032715" xlink:href="#m410dbd1b6e" y="213.071586"/>
     <use style="fill:#9467bd;stroke:#9467bd;" x="172.568528" xlink:href="#m410dbd1b6e" y="195.944171"/>
     <use style="fill:#9467bd;stroke:#9467bd;" x="154.756953" xlink:href="#m410dbd1b6e" y="211.646292"/>
     <use style="fill:#9467bd;stroke:#9467bd;" x="167.988409" xlink:href="#m410dbd1b6e" y="199.514604"/>
     <use style="fill:#9467bd;stroke:#9467bd;" x="157.278332" xlink:href="#m410dbd1b6e" y="208.001829"/>
     <use style="fill:#9467bd;stroke:#9467bd;" x="155.612834" xlink:href="#m410dbd1b6e" y="210.763301"/>
     <use style="fill:#9467bd;stroke:#9467bd;" x="156.468715" xlink:href="#m410dbd1b6e" y="209.720159"/>
     <use style="fill:#9467bd;stroke:#9467bd;" x="165.9528" xlink:href="#m410dbd1b6e" y="202.516107"/>
     <use style="fill:#9467bd;stroke:#9467bd;" x="166.022196" xlink:href="#m410dbd1b6e" y="200.151671"/>
     <use style="fill:#9467bd;stroke:#9467bd;" x="152.767609" xlink:href="#m410dbd1b6e" y="212.315238"/>
     <use style="fill:#9467bd;stroke:#9467bd;" x="167.710826" xlink:href="#m410dbd1b6e" y="199.981106"/>
     <use style="fill:#9467bd;stroke:#9467bd;" x="158.319268" xlink:href="#m410dbd1b6e" y="210.706576"/>
     <use style="fill:#9467bd;stroke:#9467bd;" x="155.520306" xlink:href="#m410dbd1b6e" y="210.271908"/>
     <use style="fill:#9467bd;stroke:#9467bd;" x="152.605685" xlink:href="#m410dbd1b6e" y="211.996838"/>
     <use style="fill:#9467bd;stroke:#9467bd;" x="150.917055" xlink:href="#m410dbd1b6e" y="215.846595"/>
     <use style="fill:#9467bd;stroke:#9467bd;" x="153.530962" xlink:href="#m410dbd1b6e" y="209.298535"/>
     <use style="fill:#9467bd;stroke:#9467bd;" x="154.59503" xlink:href="#m410dbd1b6e" y="211.619273"/>
     <use style="fill:#9467bd;stroke:#9467bd;" x="155.659098" xlink:href="#m410dbd1b6e" y="210.883688"/>
     <use style="fill:#9467bd;stroke:#9467bd;" x="155.751626" xlink:href="#m410dbd1b6e" y="211.10374"/>
     <use style="fill:#9467bd;stroke:#9467bd;" x="163.385157" xlink:href="#m410dbd1b6e" y="205.855145"/>
     <use style="fill:#9467bd;stroke:#9467bd;" x="167.64143" xlink:href="#m410dbd1b6e" y="204.658505"/>
     <use style="fill:#9467bd;stroke:#9467bd;" x="159.198281" xlink:href="#m410dbd1b6e" y="210.44445"/>
     <use style="fill:#9467bd;stroke:#9467bd;" x="172.059626" xlink:href="#m410dbd1b6e" y="204.495135"/>
     <use style="fill:#9467bd;stroke:#9467bd;" x="152.883268" xlink:href="#m410dbd1b6e" y="213.393731"/>
     <use style="fill:#9467bd;stroke:#9467bd;" x="150.061174" xlink:href="#m410dbd1b6e" y="214.713273"/>
     <use style="fill:#9467bd;stroke:#9467bd;" x="158.365532" xlink:href="#m410dbd1b6e" y="206.358842"/>
     <use style="fill:#9467bd;stroke:#9467bd;" x="163.847796" xlink:href="#m410dbd1b6e" y="209.913353"/>
     <use style="fill:#9467bd;stroke:#9467bd;" x="152.143047" xlink:href="#m410dbd1b6e" y="214.279451"/>
     <use style="fill:#9467bd;stroke:#9467bd;" x="161.233889" xlink:href="#m410dbd1b6e" y="207.282619"/>
     <use style="fill:#9467bd;stroke:#9467bd;" x="168.983081" xlink:href="#m410dbd1b6e" y="198.614992"/>
     <use style="fill:#9467bd;stroke:#9467bd;" x="156.422451" xlink:href="#m410dbd1b6e" y="213.780668"/>
     <use style="fill:#9467bd;stroke:#9467bd;" x="157.347728" xlink:href="#m410dbd1b6e" y="207.885247"/>
     <use style="fill:#9467bd;stroke:#9467bd;" x="150.500681" xlink:href="#m410dbd1b6e" y="215.244979"/>
     <use style="fill:#9467bd;stroke:#9467bd;" x="151.310298" xlink:href="#m410dbd1b6e" y="214.813208"/>
     <use style="fill:#9467bd;stroke:#9467bd;" x="172.036494" xlink:href="#m410dbd1b6e" y="193.047127"/>
     <use style="fill:#9467bd;stroke:#9467bd;" x="163.362026" xlink:href="#m410dbd1b6e" y="196.894318"/>
     <use style="fill:#9467bd;stroke:#9467bd;" x="162.80686" xlink:href="#m410dbd1b6e" y="207.381053"/>
     <use style="fill:#9467bd;stroke:#9467bd;" x="156.700034" xlink:href="#m410dbd1b6e" y="209.003852"/>
     <use style="fill:#9467bd;stroke:#9467bd;" x="151.70354" xlink:href="#m410dbd1b6e" y="214.261791"/>
     <use style="fill:#9467bd;stroke:#9467bd;" x="157.185804" xlink:href="#m410dbd1b6e" y="208.252379"/>
     <use style="fill:#9467bd;stroke:#9467bd;" x="153.415302" xlink:href="#m410dbd1b6e" y="213.961528"/>
     <use style="fill:#9467bd;stroke:#9467bd;" x="154.803217" xlink:href="#m410dbd1b6e" y="211.034265"/>
     <use style="fill:#9467bd;stroke:#9467bd;" x="159.91537" xlink:href="#m410dbd1b6e" y="205.614584"/>
     <use style="fill:#9467bd;stroke:#9467bd;" x="154.664426" xlink:href="#m410dbd1b6e" y="211.798326"/>
     <use style="fill:#9467bd;stroke:#9467bd;" x="153.785413" xlink:href="#m410dbd1b6e" y="214.265325"/>
     <use style="fill:#9467bd;stroke:#9467bd;" x="170.000885" xlink:href="#m410dbd1b6e" y="196.232995"/>
     <use style="fill:#9467bd;stroke:#9467bd;" x="161.349549" xlink:href="#m410dbd1b6e" y="207.185866"/>
     <use style="fill:#9467bd;stroke:#9467bd;" x="156.191132" xlink:href="#m410dbd1b6e" y="210.907264"/>
     <use style="fill:#9467bd;stroke:#9467bd;" x="155.265855" xlink:href="#m410dbd1b6e" y="210.951837"/>
     <use style="fill:#9467bd;stroke:#9467bd;" x="149.899251" xlink:href="#m410dbd1b6e" y="209.847466"/>
     <use style="fill:#9467bd;stroke:#9467bd;" x="154.664426" xlink:href="#m410dbd1b6e" y="209.732481"/>
     <use style="fill:#9467bd;stroke:#9467bd;" x="152.235574" xlink:href="#m410dbd1b6e" y="68.285516"/>
     <use style="fill:#9467bd;stroke:#9467bd;" x="150.570077" xlink:href="#m410dbd1b6e" y="215.895048"/>
     <use style="fill:#9467bd;stroke:#9467bd;" x="152.119915" xlink:href="#m410dbd1b6e" y="213.236664"/>
     <use style="fill:#9467bd;stroke:#9467bd;" x="158.481191" xlink:href="#m410dbd1b6e" y="211.803144"/>
     <use style="fill:#9467bd;stroke:#9467bd;" x="158.273004" xlink:href="#m410dbd1b6e" y="201.03471"/>
     <use style="fill:#9467bd;stroke:#9467bd;" x="165.189447" xlink:href="#m410dbd1b6e" y="199.792492"/>
     <use style="fill:#9467bd;stroke:#9467bd;" x="159.082621" xlink:href="#m410dbd1b6e" y="208.382794"/>
     <use style="fill:#9467bd;stroke:#9467bd;" x="157.625311" xlink:href="#m410dbd1b6e" y="206.326755"/>
     <use style="fill:#9467bd;stroke:#9467bd;" x="161.673396" xlink:href="#m410dbd1b6e" y="202.806967"/>
     <use style="fill:#9467bd;stroke:#9467bd;" x="154.155523" xlink:href="#m410dbd1b6e" y="211.938778"/>
     <use style="fill:#9467bd;stroke:#9467bd;" x="155.150196" xlink:href="#m410dbd1b6e" y="210.752837"/>
     <use style="fill:#9467bd;stroke:#9467bd;" x="166.184119" xlink:href="#m410dbd1b6e" y="200.742058"/>
     <use style="fill:#9467bd;stroke:#9467bd;" x="169.191268" xlink:href="#m410dbd1b6e" y="196.075752"/>
     <use style="fill:#9467bd;stroke:#9467bd;" x="203.125787" xlink:href="#m410dbd1b6e" y="194.50613"/>
     <use style="fill:#9467bd;stroke:#9467bd;" x="168.24286" xlink:href="#m410dbd1b6e" y="202.211333"/>
     <use style="fill:#9467bd;stroke:#9467bd;" x="155.821021" xlink:href="#m410dbd1b6e" y="209.701508"/>
     <use style="fill:#9467bd;stroke:#9467bd;" x="152.050519" xlink:href="#m410dbd1b6e" y="213.641307"/>
     <use style="fill:#9467bd;stroke:#9467bd;" x="180.248323" xlink:href="#m410dbd1b6e" y="198.224385"/>
     <use style="fill:#9467bd;stroke:#9467bd;" x="165.559557" xlink:href="#m410dbd1b6e" y="198.250803"/>
     <use style="fill:#9467bd;stroke:#9467bd;" x="171.203745" xlink:href="#m410dbd1b6e" y="195.249871"/>
     <use style="fill:#9467bd;stroke:#9467bd;" x="160.40114" xlink:href="#m410dbd1b6e" y="202.065519"/>
     <use style="fill:#9467bd;stroke:#9467bd;" x="158.712511" xlink:href="#m410dbd1b6e" y="206.656362"/>
     <use style="fill:#9467bd;stroke:#9467bd;" x="155.034536" xlink:href="#m410dbd1b6e" y="210.212123"/>
     <use style="fill:#9467bd;stroke:#9467bd;" x="167.433243" xlink:href="#m410dbd1b6e" y="202.343667"/>
     <use style="fill:#9467bd;stroke:#9467bd;" x="153.137719" xlink:href="#m410dbd1b6e" y="211.865932"/>
     <use style="fill:#9467bd;stroke:#9467bd;" x="161.696528" xlink:href="#m410dbd1b6e" y="205.038176"/>
     <use style="fill:#9467bd;stroke:#9467bd;" x="153.901072" xlink:href="#m410dbd1b6e" y="211.902626"/>
     <use style="fill:#9467bd;stroke:#9467bd;" x="163.17697" xlink:href="#m410dbd1b6e" y="206.349965"/>
     <use style="fill:#9467bd;stroke:#9467bd;" x="151.425957" xlink:href="#m410dbd1b6e" y="209.106649"/>
     <use style="fill:#9467bd;stroke:#9467bd;" x="167.132528" xlink:href="#m410dbd1b6e" y="199.381985"/>
     <use style="fill:#9467bd;stroke:#9467bd;" x="161.233889" xlink:href="#m410dbd1b6e" y="206.713166"/>
     <use style="fill:#9467bd;stroke:#9467bd;" x="153.692885" xlink:href="#m410dbd1b6e" y="213.163417"/>
     <use style="fill:#9467bd;stroke:#9467bd;" x="150.917055" xlink:href="#m410dbd1b6e" y="214.805536"/>
     <use style="fill:#9467bd;stroke:#9467bd;" x="156.399319" xlink:href="#m410dbd1b6e" y="199.991049"/>
     <use style="fill:#9467bd;stroke:#9467bd;" x="174.511609" xlink:href="#m410dbd1b6e" y="196.525011"/>
     <use style="fill:#9467bd;stroke:#9467bd;" x="162.621804" xlink:href="#m410dbd1b6e" y="205.407455"/>
     <use style="fill:#9467bd;stroke:#9467bd;" x="152.883268" xlink:href="#m410dbd1b6e" y="212.299091"/>
     <use style="fill:#9467bd;stroke:#9467bd;" x="159.660919" xlink:href="#m410dbd1b6e" y="207.713207"/>
     <use style="fill:#9467bd;stroke:#9467bd;" x="165.83714" xlink:href="#m410dbd1b6e" y="204.248445"/>
     <use style="fill:#9467bd;stroke:#9467bd;" x="159.175149" xlink:href="#m410dbd1b6e" y="209.497985"/>
     <use style="fill:#9467bd;stroke:#9467bd;" x="170.41726" xlink:href="#m410dbd1b6e" y="201.100832"/>
     <use style="fill:#9467bd;stroke:#9467bd;" x="155.982945" xlink:href="#m410dbd1b6e" y="207.135658"/>
     <use style="fill:#9467bd;stroke:#9467bd;" x="153.276511" xlink:href="#m410dbd1b6e" y="215.290597"/>
     <use style="fill:#9467bd;stroke:#9467bd;" x="153.114587" xlink:href="#m410dbd1b6e" y="212.913495"/>
     <use style="fill:#9467bd;stroke:#9467bd;" x="168.751762" xlink:href="#m410dbd1b6e" y="206.046774"/>
     <use style="fill:#9467bd;stroke:#9467bd;" x="152.119915" xlink:href="#m410dbd1b6e" y="213.057216"/>
     <use style="fill:#9467bd;stroke:#9467bd;" x="154.687557" xlink:href="#m410dbd1b6e" y="212.356481"/>
     <use style="fill:#9467bd;stroke:#9467bd;" x="154.178655" xlink:href="#m410dbd1b6e" y="212.412094"/>
     <use style="fill:#9467bd;stroke:#9467bd;" x="174.927983" xlink:href="#m410dbd1b6e" y="197.837386"/>
     <use style="fill:#9467bd;stroke:#9467bd;" x="158.157345" xlink:href="#m410dbd1b6e" y="204.63301"/>
     <use style="fill:#9467bd;stroke:#9467bd;" x="159.845974" xlink:href="#m410dbd1b6e" y="205.261859"/>
     <use style="fill:#9467bd;stroke:#9467bd;" x="160.40114" xlink:href="#m410dbd1b6e" y="208.33573"/>
     <use style="fill:#9467bd;stroke:#9467bd;" x="160.077294" xlink:href="#m410dbd1b6e" y="205.976734"/>
     <use style="fill:#9467bd;stroke:#9467bd;" x="152.513157" xlink:href="#m410dbd1b6e" y="211.223886"/>
     <use style="fill:#9467bd;stroke:#9467bd;" x="157.13954" xlink:href="#m410dbd1b6e" y="211.531715"/>
     <use style="fill:#9467bd;stroke:#9467bd;" x="150.13057" xlink:href="#m410dbd1b6e" y="213.835582"/>
     <use style="fill:#9467bd;stroke:#9467bd;" x="168.497311" xlink:href="#m410dbd1b6e" y="196.29358"/>
     <use style="fill:#9467bd;stroke:#9467bd;" x="153.831677" xlink:href="#m410dbd1b6e" y="211.628244"/>
     <use style="fill:#9467bd;stroke:#9467bd;" x="170.41726" xlink:href="#m410dbd1b6e" y="195.974905"/>
     <use style="fill:#9467bd;stroke:#9467bd;" x="157.208936" xlink:href="#m410dbd1b6e" y="206.838496"/>
     <use style="fill:#9467bd;stroke:#9467bd;" x="166.600494" xlink:href="#m410dbd1b6e" y="199.868368"/>
     <use style="fill:#9467bd;stroke:#9467bd;" x="151.726672" xlink:href="#m410dbd1b6e" y="211.708296"/>
     <use style="fill:#9467bd;stroke:#9467bd;" x="157.486519" xlink:href="#m410dbd1b6e" y="204.74892"/>
     <use style="fill:#9467bd;stroke:#9467bd;" x="154.803217" xlink:href="#m410dbd1b6e" y="211.794034"/>
     <use style="fill:#9467bd;stroke:#9467bd;" x="155.173328" xlink:href="#m410dbd1b6e" y="212.058838"/>
     <use style="fill:#9467bd;stroke:#9467bd;" x="164.125379" xlink:href="#m410dbd1b6e" y="206.091401"/>
     <use style="fill:#9467bd;stroke:#9467bd;" x="151.888596" xlink:href="#m410dbd1b6e" y="213.258962"/>
     <use style="fill:#9467bd;stroke:#9467bd;" x="164.611149" xlink:href="#m410dbd1b6e" y="204.786195"/>
     <use style="fill:#9467bd;stroke:#9467bd;" x="150.593209" xlink:href="#m410dbd1b6e" y="214.909436"/>
     <use style="fill:#9467bd;stroke:#9467bd;" x="152.767609" xlink:href="#m410dbd1b6e" y="210.380568"/>
     <use style="fill:#9467bd;stroke:#9467bd;" x="169.191268" xlink:href="#m410dbd1b6e" y="197.862164"/>
     <use style="fill:#9467bd;stroke:#9467bd;" x="156.098604" xlink:href="#m410dbd1b6e" y="209.945523"/>
     <use style="fill:#9467bd;stroke:#9467bd;" x="154.433106" xlink:href="#m410dbd1b6e" y="211.451327"/>
     <use style="fill:#9467bd;stroke:#9467bd;" x="154.918877" xlink:href="#m410dbd1b6e" y="210.458019"/>
     <use style="fill:#9467bd;stroke:#9467bd;" x="168.104068" xlink:href="#m410dbd1b6e" y="202.264532"/>
     <use style="fill:#9467bd;stroke:#9467bd;" x="154.086128" xlink:href="#m410dbd1b6e" y="210.746747"/>
     <use style="fill:#9467bd;stroke:#9467bd;" x="166.693021" xlink:href="#m410dbd1b6e" y="199.601622"/>
     <use style="fill:#9467bd;stroke:#9467bd;" x="153.530962" xlink:href="#m410dbd1b6e" y="213.293138"/>
     <use style="fill:#9467bd;stroke:#9467bd;" x="163.015047" xlink:href="#m410dbd1b6e" y="202.616722"/>
     <use style="fill:#9467bd;stroke:#9467bd;" x="165.582689" xlink:href="#m410dbd1b6e" y="206.348789"/>
     <use style="fill:#9467bd;stroke:#9467bd;" x="151.8192" xlink:href="#m410dbd1b6e" y="214.586455"/>
     <use style="fill:#9467bd;stroke:#9467bd;" x="155.497174" xlink:href="#m410dbd1b6e" y="210.97639"/>
     <use style="fill:#9467bd;stroke:#9467bd;" x="171.203745" xlink:href="#m410dbd1b6e" y="195.88898"/>
     <use style="fill:#9467bd;stroke:#9467bd;" x="162.57554" xlink:href="#m410dbd1b6e" y="205.852667"/>
     <use style="fill:#9467bd;stroke:#9467bd;" x="156.700034" xlink:href="#m410dbd1b6e" y="210.90976"/>
     <use style="fill:#9467bd;stroke:#9467bd;" x="152.143047" xlink:href="#m410dbd1b6e" y="213.999317"/>
     <use style="fill:#9467bd;stroke:#9467bd;" x="158.111081" xlink:href="#m410dbd1b6e" y="208.78786"/>
     <use style="fill:#9467bd;stroke:#9467bd;" x="156.306791" xlink:href="#m410dbd1b6e" y="208.033194"/>
     <use style="fill:#9467bd;stroke:#9467bd;" x="154.10926" xlink:href="#m410dbd1b6e" y="211.949336"/>
     <use style="fill:#9467bd;stroke:#9467bd;" x="152.351234" xlink:href="#m410dbd1b6e" y="213.302057"/>
     <use style="fill:#9467bd;stroke:#9467bd;" x="159.776579" xlink:href="#m410dbd1b6e" y="207.745809"/>
     <use style="fill:#9467bd;stroke:#9467bd;" x="167.872749" xlink:href="#m410dbd1b6e" y="201.352422"/>
     <use style="fill:#9467bd;stroke:#9467bd;" x="156.214264" xlink:href="#m410dbd1b6e" y="210.611878"/>
     <use style="fill:#9467bd;stroke:#9467bd;" x="154.641294" xlink:href="#m410dbd1b6e" y="211.385771"/>
     <use style="fill:#9467bd;stroke:#9467bd;" x="162.20543" xlink:href="#m410dbd1b6e" y="200.138921"/>
     <use style="fill:#9467bd;stroke:#9467bd;" x="152.466894" xlink:href="#m410dbd1b6e" y="209.915215"/>
     <use style="fill:#9467bd;stroke:#9467bd;" x="158.087949" xlink:href="#m410dbd1b6e" y="207.535728"/>
     <use style="fill:#9467bd;stroke:#9467bd;" x="151.726672" xlink:href="#m410dbd1b6e" y="198.20722"/>
     <use style="fill:#9467bd;stroke:#9467bd;" x="161.627132" xlink:href="#m410dbd1b6e" y="203.129286"/>
     <use style="fill:#9467bd;stroke:#9467bd;" x="162.945651" xlink:href="#m410dbd1b6e" y="202.203886"/>
     <use style="fill:#9467bd;stroke:#9467bd;" x="155.659098" xlink:href="#m410dbd1b6e" y="210.917158"/>
     <use style="fill:#9467bd;stroke:#9467bd;" x="154.456238" xlink:href="#m410dbd1b6e" y="210.167494"/>
     <use style="fill:#9467bd;stroke:#9467bd;" x="161.812187" xlink:href="#m410dbd1b6e" y="213.118918"/>
     <use style="fill:#9467bd;stroke:#9467bd;" x="154.988272" xlink:href="#m410dbd1b6e" y="192.991502"/>
     <use style="fill:#9467bd;stroke:#9467bd;" x="160.169821" xlink:href="#m410dbd1b6e" y="205.11336"/>
     <use style="fill:#9467bd;stroke:#9467bd;" x="166.577362" xlink:href="#m410dbd1b6e" y="199.737763"/>
     <use style="fill:#9467bd;stroke:#9467bd;" x="156.329923" xlink:href="#m410dbd1b6e" y="210.980635"/>
     <use style="fill:#9467bd;stroke:#9467bd;" x="149.876119" xlink:href="#m410dbd1b6e" y="214.494104"/>
     <use style="fill:#9467bd;stroke:#9467bd;" x="155.913549" xlink:href="#m410dbd1b6e" y="211.305922"/>
     <use style="fill:#9467bd;stroke:#9467bd;" x="162.714332" xlink:href="#m410dbd1b6e" y="203.256428"/>
     <use style="fill:#9467bd;stroke:#9467bd;" x="153.970468" xlink:href="#m410dbd1b6e" y="213.200968"/>
     <use style="fill:#9467bd;stroke:#9467bd;" x="152.374366" xlink:href="#m410dbd1b6e" y="213.61535"/>
     <use style="fill:#9467bd;stroke:#9467bd;" x="164.194774" xlink:href="#m410dbd1b6e" y="206.430693"/>
     <use style="fill:#9467bd;stroke:#9467bd;" x="155.589702" xlink:href="#m410dbd1b6e" y="211.776446"/>
     <use style="fill:#9467bd;stroke:#9467bd;" x="156.214264" xlink:href="#m410dbd1b6e" y="209.207733"/>
     <use style="fill:#9467bd;stroke:#9467bd;" x="153.716017" xlink:href="#m410dbd1b6e" y="212.802956"/>
     <use style="fill:#9467bd;stroke:#9467bd;" x="153.230247" xlink:href="#m410dbd1b6e" y="213.979839"/>
     <use style="fill:#9467bd;stroke:#9467bd;" x="165.652085" xlink:href="#m410dbd1b6e" y="203.897002"/>
     <use style="fill:#9467bd;stroke:#9467bd;" x="159.660919" xlink:href="#m410dbd1b6e" y="204.85356"/>
     <use style="fill:#9467bd;stroke:#9467bd;" x="157.162672" xlink:href="#m410dbd1b6e" y="210.477401"/>
     <use style="fill:#9467bd;stroke:#9467bd;" x="157.070145" xlink:href="#m410dbd1b6e" y="208.376096"/>
     <use style="fill:#9467bd;stroke:#9467bd;" x="154.687557" xlink:href="#m410dbd1b6e" y="212.364351"/>
     <use style="fill:#9467bd;stroke:#9467bd;" x="154.641294" xlink:href="#m410dbd1b6e" y="211.943613"/>
     <use style="fill:#9467bd;stroke:#9467bd;" x="170.324732" xlink:href="#m410dbd1b6e" y="197.519874"/>
     <use style="fill:#9467bd;stroke:#9467bd;" x="150.940187" xlink:href="#m410dbd1b6e" y="215.287593"/>
     <use style="fill:#9467bd;stroke:#9467bd;" x="158.758774" xlink:href="#m410dbd1b6e" y="207.751713"/>
     <use style="fill:#9467bd;stroke:#9467bd;" x="170.000885" xlink:href="#m410dbd1b6e" y="195.502464"/>
     <use style="fill:#9467bd;stroke:#9467bd;" x="171.180613" xlink:href="#m410dbd1b6e" y="199.065622"/>
     <use style="fill:#9467bd;stroke:#9467bd;" x="154.039864" xlink:href="#m410dbd1b6e" y="210.7674"/>
     <use style="fill:#9467bd;stroke:#9467bd;" x="155.474043" xlink:href="#m410dbd1b6e" y="205.996728"/>
     <use style="fill:#9467bd;stroke:#9467bd;" x="158.897566" xlink:href="#m410dbd1b6e" y="209.987825"/>
     <use style="fill:#9467bd;stroke:#9467bd;" x="151.726672" xlink:href="#m410dbd1b6e" y="213.879819"/>
     <use style="fill:#9467bd;stroke:#9467bd;" x="158.296136" xlink:href="#m410dbd1b6e" y="208.152958"/>
     <use style="fill:#9467bd;stroke:#9467bd;" x="151.587881" xlink:href="#m410dbd1b6e" y="213.08019"/>
     <use style="fill:#9467bd;stroke:#9467bd;" x="155.844153" xlink:href="#m410dbd1b6e" y="211.269895"/>
     <use style="fill:#9467bd;stroke:#9467bd;" x="171.943966" xlink:href="#m410dbd1b6e" y="214.279961"/>
     <use style="fill:#9467bd;stroke:#9467bd;" x="161.627132" xlink:href="#m410dbd1b6e" y="207.848861"/>
     <use style="fill:#9467bd;stroke:#9467bd;" x="156.538111" xlink:href="#m410dbd1b6e" y="210.160358"/>
     <use style="fill:#9467bd;stroke:#9467bd;" x="166.577362" xlink:href="#m410dbd1b6e" y="206.626967"/>
     <use style="fill:#9467bd;stroke:#9467bd;" x="159.198281" xlink:href="#m410dbd1b6e" y="206.051755"/>
     <use style="fill:#9467bd;stroke:#9467bd;" x="158.619983" xlink:href="#m410dbd1b6e" y="207.487187"/>
     <use style="fill:#9467bd;stroke:#9467bd;" x="163.431421" xlink:href="#m410dbd1b6e" y="206.732969"/>
     <use style="fill:#9467bd;stroke:#9467bd;" x="152.443762" xlink:href="#m410dbd1b6e" y="211.845986"/>
     <use style="fill:#9467bd;stroke:#9467bd;" x="158.805038" xlink:href="#m410dbd1b6e" y="209.254615"/>
     <use style="fill:#9467bd;stroke:#9467bd;" x="153.50783" xlink:href="#m410dbd1b6e" y="212.263827"/>
     <use style="fill:#9467bd;stroke:#9467bd;" x="150.778264" xlink:href="#m410dbd1b6e" y="215.226941"/>
     <use style="fill:#9467bd;stroke:#9467bd;" x="163.084443" xlink:href="#m410dbd1b6e" y="205.474919"/>
     <use style="fill:#9467bd;stroke:#9467bd;" x="166.369174" xlink:href="#m410dbd1b6e" y="200.573065"/>
     <use style="fill:#9467bd;stroke:#9467bd;" x="171.666383" xlink:href="#m410dbd1b6e" y="192.057949"/>
     <use style="fill:#9467bd;stroke:#9467bd;" x="172.013362" xlink:href="#m410dbd1b6e" y="191.955419"/>
     <use style="fill:#9467bd;stroke:#9467bd;" x="165.814009" xlink:href="#m410dbd1b6e" y="205.643419"/>
     <use style="fill:#9467bd;stroke:#9467bd;" x="153.253379" xlink:href="#m410dbd1b6e" y="212.493687"/>
     <use style="fill:#9467bd;stroke:#9467bd;" x="151.564749" xlink:href="#m410dbd1b6e" y="214.837195"/>
     <use style="fill:#9467bd;stroke:#9467bd;" x="152.536289" xlink:href="#m410dbd1b6e" y="211.911649"/>
     <use style="fill:#9467bd;stroke:#9467bd;" x="152.073651" xlink:href="#m410dbd1b6e" y="214.182775"/>
     <use style="fill:#9467bd;stroke:#9467bd;" x="151.749804" xlink:href="#m410dbd1b6e" y="213.950631"/>
     <use style="fill:#9467bd;stroke:#9467bd;" x="154.664426" xlink:href="#m410dbd1b6e" y="212.205881"/>
     <use style="fill:#9467bd;stroke:#9467bd;" x="153.669753" xlink:href="#m410dbd1b6e" y="212.774167"/>
     <use style="fill:#9467bd;stroke:#9467bd;" x="169.168136" xlink:href="#m410dbd1b6e" y="204.498097"/>
     <use style="fill:#9467bd;stroke:#9467bd;" x="153.068323" xlink:href="#m410dbd1b6e" y="211.498038"/>
     <use style="fill:#9467bd;stroke:#9467bd;" x="168.821157" xlink:href="#m410dbd1b6e" y="205.697241"/>
     <use style="fill:#9467bd;stroke:#9467bd;" x="155.936681" xlink:href="#m410dbd1b6e" y="210.844745"/>
     <use style="fill:#9467bd;stroke:#9467bd;" x="157.393991" xlink:href="#m410dbd1b6e" y="209.839056"/>
     <use style="fill:#9467bd;stroke:#9467bd;" x="151.078979" xlink:href="#m410dbd1b6e" y="214.228944"/>
     <use style="fill:#9467bd;stroke:#9467bd;" x="153.045191" xlink:href="#m410dbd1b6e" y="212.078151"/>
     <use style="fill:#9467bd;stroke:#9467bd;" x="154.294315" xlink:href="#m410dbd1b6e" y="210.344939"/>
     <use style="fill:#9467bd;stroke:#9467bd;" x="165.929668" xlink:href="#m410dbd1b6e" y="200.100428"/>
     <use style="fill:#9467bd;stroke:#9467bd;" x="164.402962" xlink:href="#m410dbd1b6e" y="204.066495"/>
     <use style="fill:#9467bd;stroke:#9467bd;" x="166.739285" xlink:href="#m410dbd1b6e" y="199.353888"/>
     <use style="fill:#9467bd;stroke:#9467bd;" x="160.771251" xlink:href="#m410dbd1b6e" y="208.539536"/>
     <use style="fill:#9467bd;stroke:#9467bd;" x="159.4296" xlink:href="#m410dbd1b6e" y="208.024356"/>
     <use style="fill:#9467bd;stroke:#9467bd;" x="166.577362" xlink:href="#m410dbd1b6e" y="203.045442"/>
     <use style="fill:#9467bd;stroke:#9467bd;" x="154.433106" xlink:href="#m410dbd1b6e" y="212.967993"/>
     <use style="fill:#9467bd;stroke:#9467bd;" x="154.756953" xlink:href="#m410dbd1b6e" y="211.803881"/>
     <use style="fill:#9467bd;stroke:#9467bd;" x="150.153702" xlink:href="#m410dbd1b6e" y="213.922727"/>
     <use style="fill:#9467bd;stroke:#9467bd;" x="156.029209" xlink:href="#m410dbd1b6e" y="211.582788"/>
     <use style="fill:#9467bd;stroke:#9467bd;" x="159.637787" xlink:href="#m410dbd1b6e" y="207.349483"/>
     <use style="fill:#9467bd;stroke:#9467bd;" x="151.194638" xlink:href="#m410dbd1b6e" y="214.319493"/>
     <use style="fill:#9467bd;stroke:#9467bd;" x="160.609328" xlink:href="#m410dbd1b6e" y="204.576595"/>
     <use style="fill:#9467bd;stroke:#9467bd;" x="161.187626" xlink:href="#m410dbd1b6e" y="206.801422"/>
     <use style="fill:#9467bd;stroke:#9467bd;" x="165.397634" xlink:href="#m410dbd1b6e" y="199.754655"/>
     <use style="fill:#9467bd;stroke:#9467bd;" x="154.224919" xlink:href="#m410dbd1b6e" y="212.803438"/>
     <use style="fill:#9467bd;stroke:#9467bd;" x="171.041821" xlink:href="#m410dbd1b6e" y="203.612871"/>
     <use style="fill:#9467bd;stroke:#9467bd;" x="151.449089" xlink:href="#m410dbd1b6e" y="213.875788"/>
     <use style="fill:#9467bd;stroke:#9467bd;" x="169.260664" xlink:href="#m410dbd1b6e" y="197.666026"/>
     <use style="fill:#9467bd;stroke:#9467bd;" x="155.103932" xlink:href="#m410dbd1b6e" y="212.350912"/>
     <use style="fill:#9467bd;stroke:#9467bd;" x="155.057668" xlink:href="#m410dbd1b6e" y="193.191187"/>
     <use style="fill:#9467bd;stroke:#9467bd;" x="153.276511" xlink:href="#m410dbd1b6e" y="212.310638"/>
     <use style="fill:#9467bd;stroke:#9467bd;" x="155.474043" xlink:href="#m410dbd1b6e" y="211.043087"/>
     <use style="fill:#9467bd;stroke:#9467bd;" x="167.502638" xlink:href="#m410dbd1b6e" y="201.670692"/>
     <use style="fill:#9467bd;stroke:#9467bd;" x="155.265855" xlink:href="#m410dbd1b6e" y="211.741138"/>
     <use style="fill:#9467bd;stroke:#9467bd;" x="150.708868" xlink:href="#m410dbd1b6e" y="215.263521"/>
     <use style="fill:#9467bd;stroke:#9467bd;" x="152.42063" xlink:href="#m410dbd1b6e" y="211.964237"/>
     <use style="fill:#9467bd;stroke:#9467bd;" x="164.472357" xlink:href="#m410dbd1b6e" y="202.034658"/>
     <use style="fill:#9467bd;stroke:#9467bd;" x="151.264034" xlink:href="#m410dbd1b6e" y="214.248202"/>
     <use style="fill:#9467bd;stroke:#9467bd;" x="166.577362" xlink:href="#m410dbd1b6e" y="189.055902"/>
     <use style="fill:#9467bd;stroke:#9467bd;" x="151.981123" xlink:href="#m410dbd1b6e" y="214.88583"/>
     <use style="fill:#9467bd;stroke:#9467bd;" x="159.4296" xlink:href="#m410dbd1b6e" y="210.188307"/>
     <use style="fill:#9467bd;stroke:#9467bd;" x="161.71966" xlink:href="#m410dbd1b6e" y="204.952169"/>
     <use style="fill:#9467bd;stroke:#9467bd;" x="157.070145" xlink:href="#m410dbd1b6e" y="209.91524"/>
     <use style="fill:#9467bd;stroke:#9467bd;" x="153.39217" xlink:href="#m410dbd1b6e" y="212.889602"/>
     <use style="fill:#9467bd;stroke:#9467bd;" x="155.034536" xlink:href="#m410dbd1b6e" y="209.499363"/>
     <use style="fill:#9467bd;stroke:#9467bd;" x="153.554094" xlink:href="#m410dbd1b6e" y="211.894439"/>
     <use style="fill:#9467bd;stroke:#9467bd;" x="150.986451" xlink:href="#m410dbd1b6e" y="215.804325"/>
     <use style="fill:#9467bd;stroke:#9467bd;" x="155.797889" xlink:href="#m410dbd1b6e" y="208.827518"/>
     <use style="fill:#9467bd;stroke:#9467bd;" x="154.317447" xlink:href="#m410dbd1b6e" y="212.557388"/>
     <use style="fill:#9467bd;stroke:#9467bd;" x="158.550587" xlink:href="#m410dbd1b6e" y="205.751907"/>
     <use style="fill:#9467bd;stroke:#9467bd;" x="154.687557" xlink:href="#m410dbd1b6e" y="210.97537"/>
     <use style="fill:#9467bd;stroke:#9467bd;" x="163.015047" xlink:href="#m410dbd1b6e" y="208.369741"/>
     <use style="fill:#9467bd;stroke:#9467bd;" x="168.196596" xlink:href="#m410dbd1b6e" y="202.524514"/>
     <use style="fill:#9467bd;stroke:#9467bd;" x="167.919013" xlink:href="#m410dbd1b6e" y="198.509409"/>
     <use style="fill:#9467bd;stroke:#9467bd;" x="160.308613" xlink:href="#m410dbd1b6e" y="205.308769"/>
     <use style="fill:#9467bd;stroke:#9467bd;" x="165.120051" xlink:href="#m410dbd1b6e" y="201.024854"/>
     <use style="fill:#9467bd;stroke:#9467bd;" x="165.096919" xlink:href="#m410dbd1b6e" y="203.149948"/>
     <use style="fill:#9467bd;stroke:#9467bd;" x="153.87794" xlink:href="#m410dbd1b6e" y="212.000055"/>
     <use style="fill:#9467bd;stroke:#9467bd;" x="152.605685" xlink:href="#m410dbd1b6e" y="214.019043"/>
     <use style="fill:#9467bd;stroke:#9467bd;" x="154.502502" xlink:href="#m410dbd1b6e" y="212.607063"/>
     <use style="fill:#9467bd;stroke:#9467bd;" x="170.047149" xlink:href="#m410dbd1b6e" y="201.774883"/>
     <use style="fill:#9467bd;stroke:#9467bd;" x="159.221413" xlink:href="#m410dbd1b6e" y="210.762365"/>
    </g>
   </g>
   <g id="matplotlib.axis_1">
    <g id="xtick_1">
     <g id="line2d_1">
      <defs>
       <path d="M 0 0 
L 0 3.5 
" id="m7d46bea50a" style="stroke:#000000;stroke-width:0.8;"/>
      </defs>
      <g>
       <use style="stroke:#000000;stroke-width:0.8;" x="149.691064" xlink:href="#m7d46bea50a" y="252"/>
      </g>
     </g>
     <g id="text_1">
      <!-- 0 -->
      <g transform="translate(146.509814 266.598437)scale(0.1 -0.1)">
       <defs>
        <path d="M 31.78125 66.40625 
Q 24.171875 66.40625 20.328125 58.90625 
Q 16.5 51.421875 16.5 36.375 
Q 16.5 21.390625 20.328125 13.890625 
Q 24.171875 6.390625 31.78125 6.390625 
Q 39.453125 6.390625 43.28125 13.890625 
Q 47.125 21.390625 47.125 36.375 
Q 47.125 51.421875 43.28125 58.90625 
Q 39.453125 66.40625 31.78125 66.40625 
z
M 31.78125 74.21875 
Q 44.046875 74.21875 50.515625 64.515625 
Q 56.984375 54.828125 56.984375 36.375 
Q 56.984375 17.96875 50.515625 8.265625 
Q 44.046875 -1.421875 31.78125 -1.421875 
Q 19.53125 -1.421875 13.0625 8.265625 
Q 6.59375 17.96875 6.59375 36.375 
Q 6.59375 54.828125 13.0625 64.515625 
Q 19.53125 74.21875 31.78125 74.21875 
z
" id="DejaVuSans-48"/>
       </defs>
       <use xlink:href="#DejaVuSans-48"/>
      </g>
     </g>
    </g>
    <g id="xtick_2">
     <g id="line2d_2">
      <g>
       <use style="stroke:#000000;stroke-width:0.8;" x="195.954894" xlink:href="#m7d46bea50a" y="252"/>
      </g>
     </g>
     <g id="text_2">
      <!-- 20 -->
      <g transform="translate(189.592394 266.598437)scale(0.1 -0.1)">
       <defs>
        <path d="M 19.1875 8.296875 
L 53.609375 8.296875 
L 53.609375 0 
L 7.328125 0 
L 7.328125 8.296875 
Q 12.9375 14.109375 22.625 23.890625 
Q 32.328125 33.6875 34.8125 36.53125 
Q 39.546875 41.84375 41.421875 45.53125 
Q 43.3125 49.21875 43.3125 52.78125 
Q 43.3125 58.59375 39.234375 62.25 
Q 35.15625 65.921875 28.609375 65.921875 
Q 23.96875 65.921875 18.8125 64.3125 
Q 13.671875 62.703125 7.8125 59.421875 
L 7.8125 69.390625 
Q 13.765625 71.78125 18.9375 73 
Q 24.125 74.21875 28.421875 74.21875 
Q 39.75 74.21875 46.484375 68.546875 
Q 53.21875 62.890625 53.21875 53.421875 
Q 53.21875 48.921875 51.53125 44.890625 
Q 49.859375 40.875 45.40625 35.40625 
Q 44.1875 33.984375 37.640625 27.21875 
Q 31.109375 20.453125 19.1875 8.296875 
z
" id="DejaVuSans-50"/>
       </defs>
       <use xlink:href="#DejaVuSans-50"/>
       <use x="63.623047" xlink:href="#DejaVuSans-48"/>
      </g>
     </g>
    </g>
    <g id="xtick_3">
     <g id="line2d_3">
      <g>
       <use style="stroke:#000000;stroke-width:0.8;" x="242.218723" xlink:href="#m7d46bea50a" y="252"/>
      </g>
     </g>
     <g id="text_3">
      <!-- 40 -->
      <g transform="translate(235.856223 266.598437)scale(0.1 -0.1)">
       <defs>
        <path d="M 37.796875 64.3125 
L 12.890625 25.390625 
L 37.796875 25.390625 
z
M 35.203125 72.90625 
L 47.609375 72.90625 
L 47.609375 25.390625 
L 58.015625 25.390625 
L 58.015625 17.1875 
L 47.609375 17.1875 
L 47.609375 0 
L 37.796875 0 
L 37.796875 17.1875 
L 4.890625 17.1875 
L 4.890625 26.703125 
z
" id="DejaVuSans-52"/>
       </defs>
       <use xlink:href="#DejaVuSans-52"/>
       <use x="63.623047" xlink:href="#DejaVuSans-48"/>
      </g>
     </g>
    </g>
    <g id="xtick_4">
     <g id="line2d_4">
      <g>
       <use style="stroke:#000000;stroke-width:0.8;" x="288.482553" xlink:href="#m7d46bea50a" y="252"/>
      </g>
     </g>
     <g id="text_4">
      <!-- 60 -->
      <g transform="translate(282.120053 266.598437)scale(0.1 -0.1)">
       <defs>
        <path d="M 33.015625 40.375 
Q 26.375 40.375 22.484375 35.828125 
Q 18.609375 31.296875 18.609375 23.390625 
Q 18.609375 15.53125 22.484375 10.953125 
Q 26.375 6.390625 33.015625 6.390625 
Q 39.65625 6.390625 43.53125 10.953125 
Q 47.40625 15.53125 47.40625 23.390625 
Q 47.40625 31.296875 43.53125 35.828125 
Q 39.65625 40.375 33.015625 40.375 
z
M 52.59375 71.296875 
L 52.59375 62.3125 
Q 48.875 64.0625 45.09375 64.984375 
Q 41.3125 65.921875 37.59375 65.921875 
Q 27.828125 65.921875 22.671875 59.328125 
Q 17.53125 52.734375 16.796875 39.40625 
Q 19.671875 43.65625 24.015625 45.921875 
Q 28.375 48.1875 33.59375 48.1875 
Q 44.578125 48.1875 50.953125 41.515625 
Q 57.328125 34.859375 57.328125 23.390625 
Q 57.328125 12.15625 50.6875 5.359375 
Q 44.046875 -1.421875 33.015625 -1.421875 
Q 20.359375 -1.421875 13.671875 8.265625 
Q 6.984375 17.96875 6.984375 36.375 
Q 6.984375 53.65625 15.1875 63.9375 
Q 23.390625 74.21875 37.203125 74.21875 
Q 40.921875 74.21875 44.703125 73.484375 
Q 48.484375 72.75 52.59375 71.296875 
z
" id="DejaVuSans-54"/>
       </defs>
       <use xlink:href="#DejaVuSans-54"/>
       <use x="63.623047" xlink:href="#DejaVuSans-48"/>
      </g>
     </g>
    </g>
    <g id="text_5">
     <!-- True Values [O2] -->
     <g transform="translate(180.25 280.276563)scale(0.1 -0.1)">
      <defs>
       <path d="M -0.296875 72.90625 
L 61.375 72.90625 
L 61.375 64.59375 
L 35.5 64.59375 
L 35.5 0 
L 25.59375 0 
L 25.59375 64.59375 
L -0.296875 64.59375 
z
" id="DejaVuSans-84"/>
       <path d="M 41.109375 46.296875 
Q 39.59375 47.171875 37.8125 47.578125 
Q 36.03125 48 33.890625 48 
Q 26.265625 48 22.1875 43.046875 
Q 18.109375 38.09375 18.109375 28.8125 
L 18.109375 0 
L 9.078125 0 
L 9.078125 54.6875 
L 18.109375 54.6875 
L 18.109375 46.1875 
Q 20.953125 51.171875 25.484375 53.578125 
Q 30.03125 56 36.53125 56 
Q 37.453125 56 38.578125 55.875 
Q 39.703125 55.765625 41.0625 55.515625 
z
" id="DejaVuSans-114"/>
       <path d="M 8.5 21.578125 
L 8.5 54.6875 
L 17.484375 54.6875 
L 17.484375 21.921875 
Q 17.484375 14.15625 20.5 10.265625 
Q 23.53125 6.390625 29.59375 6.390625 
Q 36.859375 6.390625 41.078125 11.03125 
Q 45.3125 15.671875 45.3125 23.6875 
L 45.3125 54.6875 
L 54.296875 54.6875 
L 54.296875 0 
L 45.3125 0 
L 45.3125 8.40625 
Q 42.046875 3.421875 37.71875 1 
Q 33.40625 -1.421875 27.6875 -1.421875 
Q 18.265625 -1.421875 13.375 4.4375 
Q 8.5 10.296875 8.5 21.578125 
z
M 31.109375 56 
z
" id="DejaVuSans-117"/>
       <path d="M 56.203125 29.59375 
L 56.203125 25.203125 
L 14.890625 25.203125 
Q 15.484375 15.921875 20.484375 11.0625 
Q 25.484375 6.203125 34.421875 6.203125 
Q 39.59375 6.203125 44.453125 7.46875 
Q 49.3125 8.734375 54.109375 11.28125 
L 54.109375 2.78125 
Q 49.265625 0.734375 44.1875 -0.34375 
Q 39.109375 -1.421875 33.890625 -1.421875 
Q 20.796875 -1.421875 13.15625 6.1875 
Q 5.515625 13.8125 5.515625 26.8125 
Q 5.515625 40.234375 12.765625 48.109375 
Q 20.015625 56 32.328125 56 
Q 43.359375 56 49.78125 48.890625 
Q 56.203125 41.796875 56.203125 29.59375 
z
M 47.21875 32.234375 
Q 47.125 39.59375 43.09375 43.984375 
Q 39.0625 48.390625 32.421875 48.390625 
Q 24.90625 48.390625 20.390625 44.140625 
Q 15.875 39.890625 15.1875 32.171875 
z
" id="DejaVuSans-101"/>
       <path id="DejaVuSans-32"/>
       <path d="M 28.609375 0 
L 0.78125 72.90625 
L 11.078125 72.90625 
L 34.1875 11.53125 
L 57.328125 72.90625 
L 67.578125 72.90625 
L 39.796875 0 
z
" id="DejaVuSans-86"/>
       <path d="M 34.28125 27.484375 
Q 23.390625 27.484375 19.1875 25 
Q 14.984375 22.515625 14.984375 16.5 
Q 14.984375 11.71875 18.140625 8.90625 
Q 21.296875 6.109375 26.703125 6.109375 
Q 34.1875 6.109375 38.703125 11.40625 
Q 43.21875 16.703125 43.21875 25.484375 
L 43.21875 27.484375 
z
M 52.203125 31.203125 
L 52.203125 0 
L 43.21875 0 
L 43.21875 8.296875 
Q 40.140625 3.328125 35.546875 0.953125 
Q 30.953125 -1.421875 24.3125 -1.421875 
Q 15.921875 -1.421875 10.953125 3.296875 
Q 6 8.015625 6 15.921875 
Q 6 25.140625 12.171875 29.828125 
Q 18.359375 34.515625 30.609375 34.515625 
L 43.21875 34.515625 
L 43.21875 35.40625 
Q 43.21875 41.609375 39.140625 45 
Q 35.0625 48.390625 27.6875 48.390625 
Q 23 48.390625 18.546875 47.265625 
Q 14.109375 46.140625 10.015625 43.890625 
L 10.015625 52.203125 
Q 14.9375 54.109375 19.578125 55.046875 
Q 24.21875 56 28.609375 56 
Q 40.484375 56 46.34375 49.84375 
Q 52.203125 43.703125 52.203125 31.203125 
z
" id="DejaVuSans-97"/>
       <path d="M 9.421875 75.984375 
L 18.40625 75.984375 
L 18.40625 0 
L 9.421875 0 
z
" id="DejaVuSans-108"/>
       <path d="M 44.28125 53.078125 
L 44.28125 44.578125 
Q 40.484375 46.53125 36.375 47.5 
Q 32.28125 48.484375 27.875 48.484375 
Q 21.1875 48.484375 17.84375 46.4375 
Q 14.5 44.390625 14.5 40.28125 
Q 14.5 37.15625 16.890625 35.375 
Q 19.28125 33.59375 26.515625 31.984375 
L 29.59375 31.296875 
Q 39.15625 29.25 43.1875 25.515625 
Q 47.21875 21.78125 47.21875 15.09375 
Q 47.21875 7.46875 41.1875 3.015625 
Q 35.15625 -1.421875 24.609375 -1.421875 
Q 20.21875 -1.421875 15.453125 -0.5625 
Q 10.6875 0.296875 5.421875 2 
L 5.421875 11.28125 
Q 10.40625 8.6875 15.234375 7.390625 
Q 20.0625 6.109375 24.8125 6.109375 
Q 31.15625 6.109375 34.5625 8.28125 
Q 37.984375 10.453125 37.984375 14.40625 
Q 37.984375 18.0625 35.515625 20.015625 
Q 33.0625 21.96875 24.703125 23.78125 
L 21.578125 24.515625 
Q 13.234375 26.265625 9.515625 29.90625 
Q 5.8125 33.546875 5.8125 39.890625 
Q 5.8125 47.609375 11.28125 51.796875 
Q 16.75 56 26.8125 56 
Q 31.78125 56 36.171875 55.265625 
Q 40.578125 54.546875 44.28125 53.078125 
z
" id="DejaVuSans-115"/>
       <path d="M 8.59375 75.984375 
L 29.296875 75.984375 
L 29.296875 69 
L 17.578125 69 
L 17.578125 -6.203125 
L 29.296875 -6.203125 
L 29.296875 -13.1875 
L 8.59375 -13.1875 
z
" id="DejaVuSans-91"/>
       <path d="M 39.40625 66.21875 
Q 28.65625 66.21875 22.328125 58.203125 
Q 16.015625 50.203125 16.015625 36.375 
Q 16.015625 22.609375 22.328125 14.59375 
Q 28.65625 6.59375 39.40625 6.59375 
Q 50.140625 6.59375 56.421875 14.59375 
Q 62.703125 22.609375 62.703125 36.375 
Q 62.703125 50.203125 56.421875 58.203125 
Q 50.140625 66.21875 39.40625 66.21875 
z
M 39.40625 74.21875 
Q 54.734375 74.21875 63.90625 63.9375 
Q 73.09375 53.65625 73.09375 36.375 
Q 73.09375 19.140625 63.90625 8.859375 
Q 54.734375 -1.421875 39.40625 -1.421875 
Q 24.03125 -1.421875 14.8125 8.828125 
Q 5.609375 19.09375 5.609375 36.375 
Q 5.609375 53.65625 14.8125 63.9375 
Q 24.03125 74.21875 39.40625 74.21875 
z
" id="DejaVuSans-79"/>
       <path d="M 30.421875 75.984375 
L 30.421875 -13.1875 
L 9.71875 -13.1875 
L 9.71875 -6.203125 
L 21.390625 -6.203125 
L 21.390625 69 
L 9.71875 69 
L 9.71875 75.984375 
z
" id="DejaVuSans-93"/>
      </defs>
      <use xlink:href="#DejaVuSans-84"/>
      <use x="46.333984" xlink:href="#DejaVuSans-114"/>
      <use x="87.447266" xlink:href="#DejaVuSans-117"/>
      <use x="150.826172" xlink:href="#DejaVuSans-101"/>
      <use x="212.349609" xlink:href="#DejaVuSans-32"/>
      <use x="244.136719" xlink:href="#DejaVuSans-86"/>
      <use x="304.794922" xlink:href="#DejaVuSans-97"/>
      <use x="366.074219" xlink:href="#DejaVuSans-108"/>
      <use x="393.857422" xlink:href="#DejaVuSans-117"/>
      <use x="457.236328" xlink:href="#DejaVuSans-101"/>
      <use x="518.759766" xlink:href="#DejaVuSans-115"/>
      <use x="570.859375" xlink:href="#DejaVuSans-32"/>
      <use x="602.646484" xlink:href="#DejaVuSans-91"/>
      <use x="641.660156" xlink:href="#DejaVuSans-79"/>
      <use x="720.371094" xlink:href="#DejaVuSans-50"/>
      <use x="783.994141" xlink:href="#DejaVuSans-93"/>
     </g>
    </g>
   </g>
   <g id="matplotlib.axis_2">
    <g id="ytick_1">
     <g id="line2d_5">
      <defs>
       <path d="M 0 0 
L -3.5 0 
" id="m6dabf9860a" style="stroke:#000000;stroke-width:0.8;"/>
      </defs>
      <g>
       <use style="stroke:#000000;stroke-width:0.8;" x="112.68" xlink:href="#m6dabf9860a" y="214.988936"/>
      </g>
     </g>
     <g id="text_6">
      <!-- 0 -->
      <g transform="translate(99.3175 218.788155)scale(0.1 -0.1)">
       <use xlink:href="#DejaVuSans-48"/>
      </g>
     </g>
    </g>
    <g id="ytick_2">
     <g id="line2d_6">
      <g>
       <use style="stroke:#000000;stroke-width:0.8;" x="112.68" xlink:href="#m6dabf9860a" y="168.725106"/>
      </g>
     </g>
     <g id="text_7">
      <!-- 20 -->
      <g transform="translate(92.955 172.524325)scale(0.1 -0.1)">
       <use xlink:href="#DejaVuSans-50"/>
       <use x="63.623047" xlink:href="#DejaVuSans-48"/>
      </g>
     </g>
    </g>
    <g id="ytick_3">
     <g id="line2d_7">
      <g>
       <use style="stroke:#000000;stroke-width:0.8;" x="112.68" xlink:href="#m6dabf9860a" y="122.461277"/>
      </g>
     </g>
     <g id="text_8">
      <!-- 40 -->
      <g transform="translate(92.955 126.260495)scale(0.1 -0.1)">
       <use xlink:href="#DejaVuSans-52"/>
       <use x="63.623047" xlink:href="#DejaVuSans-48"/>
      </g>
     </g>
    </g>
    <g id="ytick_4">
     <g id="line2d_8">
      <g>
       <use style="stroke:#000000;stroke-width:0.8;" x="112.68" xlink:href="#m6dabf9860a" y="76.197447"/>
      </g>
     </g>
     <g id="text_9">
      <!-- 60 -->
      <g transform="translate(92.955 79.996666)scale(0.1 -0.1)">
       <use xlink:href="#DejaVuSans-54"/>
       <use x="63.623047" xlink:href="#DejaVuSans-48"/>
      </g>
     </g>
    </g>
    <g id="text_10">
     <!-- Predictions [O2] -->
     <g transform="translate(86.875313 183.329219)rotate(-90)scale(0.1 -0.1)">
      <defs>
       <path d="M 19.671875 64.796875 
L 19.671875 37.40625 
L 32.078125 37.40625 
Q 38.96875 37.40625 42.71875 40.96875 
Q 46.484375 44.53125 46.484375 51.125 
Q 46.484375 57.671875 42.71875 61.234375 
Q 38.96875 64.796875 32.078125 64.796875 
z
M 9.8125 72.90625 
L 32.078125 72.90625 
Q 44.34375 72.90625 50.609375 67.359375 
Q 56.890625 61.8125 56.890625 51.125 
Q 56.890625 40.328125 50.609375 34.8125 
Q 44.34375 29.296875 32.078125 29.296875 
L 19.671875 29.296875 
L 19.671875 0 
L 9.8125 0 
z
" id="DejaVuSans-80"/>
       <path d="M 45.40625 46.390625 
L 45.40625 75.984375 
L 54.390625 75.984375 
L 54.390625 0 
L 45.40625 0 
L 45.40625 8.203125 
Q 42.578125 3.328125 38.25 0.953125 
Q 33.9375 -1.421875 27.875 -1.421875 
Q 17.96875 -1.421875 11.734375 6.484375 
Q 5.515625 14.40625 5.515625 27.296875 
Q 5.515625 40.1875 11.734375 48.09375 
Q 17.96875 56 27.875 56 
Q 33.9375 56 38.25 53.625 
Q 42.578125 51.265625 45.40625 46.390625 
z
M 14.796875 27.296875 
Q 14.796875 17.390625 18.875 11.75 
Q 22.953125 6.109375 30.078125 6.109375 
Q 37.203125 6.109375 41.296875 11.75 
Q 45.40625 17.390625 45.40625 27.296875 
Q 45.40625 37.203125 41.296875 42.84375 
Q 37.203125 48.484375 30.078125 48.484375 
Q 22.953125 48.484375 18.875 42.84375 
Q 14.796875 37.203125 14.796875 27.296875 
z
" id="DejaVuSans-100"/>
       <path d="M 9.421875 54.6875 
L 18.40625 54.6875 
L 18.40625 0 
L 9.421875 0 
z
M 9.421875 75.984375 
L 18.40625 75.984375 
L 18.40625 64.59375 
L 9.421875 64.59375 
z
" id="DejaVuSans-105"/>
       <path d="M 48.78125 52.59375 
L 48.78125 44.1875 
Q 44.96875 46.296875 41.140625 47.34375 
Q 37.3125 48.390625 33.40625 48.390625 
Q 24.65625 48.390625 19.8125 42.84375 
Q 14.984375 37.3125 14.984375 27.296875 
Q 14.984375 17.28125 19.8125 11.734375 
Q 24.65625 6.203125 33.40625 6.203125 
Q 37.3125 6.203125 41.140625 7.25 
Q 44.96875 8.296875 48.78125 10.40625 
L 48.78125 2.09375 
Q 45.015625 0.34375 40.984375 -0.53125 
Q 36.96875 -1.421875 32.421875 -1.421875 
Q 20.0625 -1.421875 12.78125 6.34375 
Q 5.515625 14.109375 5.515625 27.296875 
Q 5.515625 40.671875 12.859375 48.328125 
Q 20.21875 56 33.015625 56 
Q 37.15625 56 41.109375 55.140625 
Q 45.0625 54.296875 48.78125 52.59375 
z
" id="DejaVuSans-99"/>
       <path d="M 18.3125 70.21875 
L 18.3125 54.6875 
L 36.8125 54.6875 
L 36.8125 47.703125 
L 18.3125 47.703125 
L 18.3125 18.015625 
Q 18.3125 11.328125 20.140625 9.421875 
Q 21.96875 7.515625 27.59375 7.515625 
L 36.8125 7.515625 
L 36.8125 0 
L 27.59375 0 
Q 17.1875 0 13.234375 3.875 
Q 9.28125 7.765625 9.28125 18.015625 
L 9.28125 47.703125 
L 2.6875 47.703125 
L 2.6875 54.6875 
L 9.28125 54.6875 
L 9.28125 70.21875 
z
" id="DejaVuSans-116"/>
       <path d="M 30.609375 48.390625 
Q 23.390625 48.390625 19.1875 42.75 
Q 14.984375 37.109375 14.984375 27.296875 
Q 14.984375 17.484375 19.15625 11.84375 
Q 23.34375 6.203125 30.609375 6.203125 
Q 37.796875 6.203125 41.984375 11.859375 
Q 46.1875 17.53125 46.1875 27.296875 
Q 46.1875 37.015625 41.984375 42.703125 
Q 37.796875 48.390625 30.609375 48.390625 
z
M 30.609375 56 
Q 42.328125 56 49.015625 48.375 
Q 55.71875 40.765625 55.71875 27.296875 
Q 55.71875 13.875 49.015625 6.21875 
Q 42.328125 -1.421875 30.609375 -1.421875 
Q 18.84375 -1.421875 12.171875 6.21875 
Q 5.515625 13.875 5.515625 27.296875 
Q 5.515625 40.765625 12.171875 48.375 
Q 18.84375 56 30.609375 56 
z
" id="DejaVuSans-111"/>
       <path d="M 54.890625 33.015625 
L 54.890625 0 
L 45.90625 0 
L 45.90625 32.71875 
Q 45.90625 40.484375 42.875 44.328125 
Q 39.84375 48.1875 33.796875 48.1875 
Q 26.515625 48.1875 22.3125 43.546875 
Q 18.109375 38.921875 18.109375 30.90625 
L 18.109375 0 
L 9.078125 0 
L 9.078125 54.6875 
L 18.109375 54.6875 
L 18.109375 46.1875 
Q 21.34375 51.125 25.703125 53.5625 
Q 30.078125 56 35.796875 56 
Q 45.21875 56 50.046875 50.171875 
Q 54.890625 44.34375 54.890625 33.015625 
z
" id="DejaVuSans-110"/>
      </defs>
      <use xlink:href="#DejaVuSans-80"/>
      <use x="58.552734" xlink:href="#DejaVuSans-114"/>
      <use x="97.416016" xlink:href="#DejaVuSans-101"/>
      <use x="158.939453" xlink:href="#DejaVuSans-100"/>
      <use x="222.416016" xlink:href="#DejaVuSans-105"/>
      <use x="250.199219" xlink:href="#DejaVuSans-99"/>
      <use x="305.179688" xlink:href="#DejaVuSans-116"/>
      <use x="344.388672" xlink:href="#DejaVuSans-105"/>
      <use x="372.171875" xlink:href="#DejaVuSans-111"/>
      <use x="433.353516" xlink:href="#DejaVuSans-110"/>
      <use x="496.732422" xlink:href="#DejaVuSans-115"/>
      <use x="548.832031" xlink:href="#DejaVuSans-32"/>
      <use x="580.619141" xlink:href="#DejaVuSans-91"/>
      <use x="619.632812" xlink:href="#DejaVuSans-79"/>
      <use x="698.34375" xlink:href="#DejaVuSans-50"/>
      <use x="761.966797" xlink:href="#DejaVuSans-93"/>
     </g>
    </g>
   </g>
   <g id="line2d_9">
    <path clip-path="url(#pb68ef5b7a7)" d="M 112.68 252 
L 330.12 34.56 
" style="fill:none;stroke:#8c564b;stroke-linecap:square;stroke-width:1.5;"/>
   </g>
   <g id="patch_3">
    <path d="M 112.68 252 
L 112.68 34.56 
" style="fill:none;stroke:#000000;stroke-linecap:square;stroke-linejoin:miter;stroke-width:0.8;"/>
   </g>
   <g id="patch_4">
    <path d="M 330.12 252 
L 330.12 34.56 
" style="fill:none;stroke:#000000;stroke-linecap:square;stroke-linejoin:miter;stroke-width:0.8;"/>
   </g>
   <g id="patch_5">
    <path d="M 112.68 252 
L 330.12 252 
" style="fill:none;stroke:#000000;stroke-linecap:square;stroke-linejoin:miter;stroke-width:0.8;"/>
   </g>
   <g id="patch_6">
    <path d="M 112.68 34.56 
L 330.12 34.56 
" style="fill:none;stroke:#000000;stroke-linecap:square;stroke-linejoin:miter;stroke-width:0.8;"/>
   </g>
   <g id="text_11">
    <!-- optimizer=RMSprop -->
    <g transform="translate(161.278125 14.227125)scale(0.12 -0.12)">
     <defs>
      <path d="M 18.109375 8.203125 
L 18.109375 -20.796875 
L 9.078125 -20.796875 
L 9.078125 54.6875 
L 18.109375 54.6875 
L 18.109375 46.390625 
Q 20.953125 51.265625 25.265625 53.625 
Q 29.59375 56 35.59375 56 
Q 45.5625 56 51.78125 48.09375 
Q 58.015625 40.1875 58.015625 27.296875 
Q 58.015625 14.40625 51.78125 6.484375 
Q 45.5625 -1.421875 35.59375 -1.421875 
Q 29.59375 -1.421875 25.265625 0.953125 
Q 20.953125 3.328125 18.109375 8.203125 
z
M 48.6875 27.296875 
Q 48.6875 37.203125 44.609375 42.84375 
Q 40.53125 48.484375 33.40625 48.484375 
Q 26.265625 48.484375 22.1875 42.84375 
Q 18.109375 37.203125 18.109375 27.296875 
Q 18.109375 17.390625 22.1875 11.75 
Q 26.265625 6.109375 33.40625 6.109375 
Q 40.53125 6.109375 44.609375 11.75 
Q 48.6875 17.390625 48.6875 27.296875 
z
" id="DejaVuSans-112"/>
      <path d="M 52 44.1875 
Q 55.375 50.25 60.0625 53.125 
Q 64.75 56 71.09375 56 
Q 79.640625 56 84.28125 50.015625 
Q 88.921875 44.046875 88.921875 33.015625 
L 88.921875 0 
L 79.890625 0 
L 79.890625 32.71875 
Q 79.890625 40.578125 77.09375 44.375 
Q 74.3125 48.1875 68.609375 48.1875 
Q 61.625 48.1875 57.5625 43.546875 
Q 53.515625 38.921875 53.515625 30.90625 
L 53.515625 0 
L 44.484375 0 
L 44.484375 32.71875 
Q 44.484375 40.625 41.703125 44.40625 
Q 38.921875 48.1875 33.109375 48.1875 
Q 26.21875 48.1875 22.15625 43.53125 
Q 18.109375 38.875 18.109375 30.90625 
L 18.109375 0 
L 9.078125 0 
L 9.078125 54.6875 
L 18.109375 54.6875 
L 18.109375 46.1875 
Q 21.1875 51.21875 25.484375 53.609375 
Q 29.78125 56 35.6875 56 
Q 41.65625 56 45.828125 52.96875 
Q 50 49.953125 52 44.1875 
z
" id="DejaVuSans-109"/>
      <path d="M 5.515625 54.6875 
L 48.1875 54.6875 
L 48.1875 46.484375 
L 14.40625 7.171875 
L 48.1875 7.171875 
L 48.1875 0 
L 4.296875 0 
L 4.296875 8.203125 
L 38.09375 47.515625 
L 5.515625 47.515625 
z
" id="DejaVuSans-122"/>
      <path d="M 10.59375 45.40625 
L 73.1875 45.40625 
L 73.1875 37.203125 
L 10.59375 37.203125 
z
M 10.59375 25.484375 
L 73.1875 25.484375 
L 73.1875 17.1875 
L 10.59375 17.1875 
z
" id="DejaVuSans-61"/>
      <path d="M 44.390625 34.1875 
Q 47.5625 33.109375 50.5625 29.59375 
Q 53.5625 26.078125 56.59375 19.921875 
L 66.609375 0 
L 56 0 
L 46.6875 18.703125 
Q 43.0625 26.03125 39.671875 28.421875 
Q 36.28125 30.8125 30.421875 30.8125 
L 19.671875 30.8125 
L 19.671875 0 
L 9.8125 0 
L 9.8125 72.90625 
L 32.078125 72.90625 
Q 44.578125 72.90625 50.734375 67.671875 
Q 56.890625 62.453125 56.890625 51.90625 
Q 56.890625 45.015625 53.6875 40.46875 
Q 50.484375 35.9375 44.390625 34.1875 
z
M 19.671875 64.796875 
L 19.671875 38.921875 
L 32.078125 38.921875 
Q 39.203125 38.921875 42.84375 42.21875 
Q 46.484375 45.515625 46.484375 51.90625 
Q 46.484375 58.296875 42.84375 61.546875 
Q 39.203125 64.796875 32.078125 64.796875 
z
" id="DejaVuSans-82"/>
      <path d="M 9.8125 72.90625 
L 24.515625 72.90625 
L 43.109375 23.296875 
L 61.8125 72.90625 
L 76.515625 72.90625 
L 76.515625 0 
L 66.890625 0 
L 66.890625 64.015625 
L 48.09375 14.015625 
L 38.1875 14.015625 
L 19.390625 64.015625 
L 19.390625 0 
L 9.8125 0 
z
" id="DejaVuSans-77"/>
      <path d="M 53.515625 70.515625 
L 53.515625 60.890625 
Q 47.90625 63.578125 42.921875 64.890625 
Q 37.9375 66.21875 33.296875 66.21875 
Q 25.25 66.21875 20.875 63.09375 
Q 16.5 59.96875 16.5 54.203125 
Q 16.5 49.359375 19.40625 46.890625 
Q 22.3125 44.4375 30.421875 42.921875 
L 36.375 41.703125 
Q 47.40625 39.59375 52.65625 34.296875 
Q 57.90625 29 57.90625 20.125 
Q 57.90625 9.515625 50.796875 4.046875 
Q 43.703125 -1.421875 29.984375 -1.421875 
Q 24.8125 -1.421875 18.96875 -0.25 
Q 13.140625 0.921875 6.890625 3.21875 
L 6.890625 13.375 
Q 12.890625 10.015625 18.65625 8.296875 
Q 24.421875 6.59375 29.984375 6.59375 
Q 38.421875 6.59375 43.015625 9.90625 
Q 47.609375 13.234375 47.609375 19.390625 
Q 47.609375 24.75 44.3125 27.78125 
Q 41.015625 30.8125 33.5 32.328125 
L 27.484375 33.5 
Q 16.453125 35.6875 11.515625 40.375 
Q 6.59375 45.0625 6.59375 53.421875 
Q 6.59375 63.09375 13.40625 68.65625 
Q 20.21875 74.21875 32.171875 74.21875 
Q 37.3125 74.21875 42.625 73.28125 
Q 47.953125 72.359375 53.515625 70.515625 
z
" id="DejaVuSans-83"/>
     </defs>
     <use xlink:href="#DejaVuSans-111"/>
     <use x="61.181641" xlink:href="#DejaVuSans-112"/>
     <use x="124.658203" xlink:href="#DejaVuSans-116"/>
     <use x="163.867188" xlink:href="#DejaVuSans-105"/>
     <use x="191.650391" xlink:href="#DejaVuSans-109"/>
     <use x="289.0625" xlink:href="#DejaVuSans-105"/>
     <use x="316.845703" xlink:href="#DejaVuSans-122"/>
     <use x="369.335938" xlink:href="#DejaVuSans-101"/>
     <use x="430.859375" xlink:href="#DejaVuSans-114"/>
     <use x="471.972656" xlink:href="#DejaVuSans-61"/>
     <use x="555.761719" xlink:href="#DejaVuSans-82"/>
     <use x="625.244141" xlink:href="#DejaVuSans-77"/>
     <use x="711.523438" xlink:href="#DejaVuSans-83"/>
     <use x="775" xlink:href="#DejaVuSans-112"/>
     <use x="838.476562" xlink:href="#DejaVuSans-114"/>
     <use x="877.339844" xlink:href="#DejaVuSans-111"/>
     <use x="938.521484" xlink:href="#DejaVuSans-112"/>
    </g>
    <!-- MSE=11.6613; MAE=1.3159; $R^2$=-0.33 -->
    <g transform="translate(104.16 28.56)scale(0.12 -0.12)">
     <defs>
      <path d="M 9.8125 72.90625 
L 55.90625 72.90625 
L 55.90625 64.59375 
L 19.671875 64.59375 
L 19.671875 43.015625 
L 54.390625 43.015625 
L 54.390625 34.71875 
L 19.671875 34.71875 
L 19.671875 8.296875 
L 56.78125 8.296875 
L 56.78125 0 
L 9.8125 0 
z
" id="DejaVuSans-69"/>
      <path d="M 12.40625 8.296875 
L 28.515625 8.296875 
L 28.515625 63.921875 
L 10.984375 60.40625 
L 10.984375 69.390625 
L 28.421875 72.90625 
L 38.28125 72.90625 
L 38.28125 8.296875 
L 54.390625 8.296875 
L 54.390625 0 
L 12.40625 0 
z
" id="DejaVuSans-49"/>
      <path d="M 10.6875 12.40625 
L 21 12.40625 
L 21 0 
L 10.6875 0 
z
" id="DejaVuSans-46"/>
      <path d="M 40.578125 39.3125 
Q 47.65625 37.796875 51.625 33 
Q 55.609375 28.21875 55.609375 21.1875 
Q 55.609375 10.40625 48.1875 4.484375 
Q 40.765625 -1.421875 27.09375 -1.421875 
Q 22.515625 -1.421875 17.65625 -0.515625 
Q 12.796875 0.390625 7.625 2.203125 
L 7.625 11.71875 
Q 11.71875 9.328125 16.59375 8.109375 
Q 21.484375 6.890625 26.8125 6.890625 
Q 36.078125 6.890625 40.9375 10.546875 
Q 45.796875 14.203125 45.796875 21.1875 
Q 45.796875 27.640625 41.28125 31.265625 
Q 36.765625 34.90625 28.71875 34.90625 
L 20.21875 34.90625 
L 20.21875 43.015625 
L 29.109375 43.015625 
Q 36.375 43.015625 40.234375 45.921875 
Q 44.09375 48.828125 44.09375 54.296875 
Q 44.09375 59.90625 40.109375 62.90625 
Q 36.140625 65.921875 28.71875 65.921875 
Q 24.65625 65.921875 20.015625 65.03125 
Q 15.375 64.15625 9.8125 62.3125 
L 9.8125 71.09375 
Q 15.4375 72.65625 20.34375 73.4375 
Q 25.25 74.21875 29.59375 74.21875 
Q 40.828125 74.21875 47.359375 69.109375 
Q 53.90625 64.015625 53.90625 55.328125 
Q 53.90625 49.265625 50.4375 45.09375 
Q 46.96875 40.921875 40.578125 39.3125 
z
" id="DejaVuSans-51"/>
      <path d="M 11.71875 51.703125 
L 22.015625 51.703125 
L 22.015625 39.3125 
L 11.71875 39.3125 
z
M 11.71875 12.40625 
L 22.015625 12.40625 
L 22.015625 4 
L 14.015625 -11.625 
L 7.71875 -11.625 
L 11.71875 4 
z
" id="DejaVuSans-59"/>
      <path d="M 34.1875 63.1875 
L 20.796875 26.90625 
L 47.609375 26.90625 
z
M 28.609375 72.90625 
L 39.796875 72.90625 
L 67.578125 0 
L 57.328125 0 
L 50.6875 18.703125 
L 17.828125 18.703125 
L 11.1875 0 
L 0.78125 0 
z
" id="DejaVuSans-65"/>
      <path d="M 10.796875 72.90625 
L 49.515625 72.90625 
L 49.515625 64.59375 
L 19.828125 64.59375 
L 19.828125 46.734375 
Q 21.96875 47.46875 24.109375 47.828125 
Q 26.265625 48.1875 28.421875 48.1875 
Q 40.625 48.1875 47.75 41.5 
Q 54.890625 34.8125 54.890625 23.390625 
Q 54.890625 11.625 47.5625 5.09375 
Q 40.234375 -1.421875 26.90625 -1.421875 
Q 22.3125 -1.421875 17.546875 -0.640625 
Q 12.796875 0.140625 7.71875 1.703125 
L 7.71875 11.625 
Q 12.109375 9.234375 16.796875 8.0625 
Q 21.484375 6.890625 26.703125 6.890625 
Q 35.15625 6.890625 40.078125 11.328125 
Q 45.015625 15.765625 45.015625 23.390625 
Q 45.015625 31 40.078125 35.4375 
Q 35.15625 39.890625 26.703125 39.890625 
Q 22.75 39.890625 18.8125 39.015625 
Q 14.890625 38.140625 10.796875 36.28125 
z
" id="DejaVuSans-53"/>
      <path d="M 10.984375 1.515625 
L 10.984375 10.5 
Q 14.703125 8.734375 18.5 7.8125 
Q 22.3125 6.890625 25.984375 6.890625 
Q 35.75 6.890625 40.890625 13.453125 
Q 46.046875 20.015625 46.78125 33.40625 
Q 43.953125 29.203125 39.59375 26.953125 
Q 35.25 24.703125 29.984375 24.703125 
Q 19.046875 24.703125 12.671875 31.3125 
Q 6.296875 37.9375 6.296875 49.421875 
Q 6.296875 60.640625 12.9375 67.421875 
Q 19.578125 74.21875 30.609375 74.21875 
Q 43.265625 74.21875 49.921875 64.515625 
Q 56.59375 54.828125 56.59375 36.375 
Q 56.59375 19.140625 48.40625 8.859375 
Q 40.234375 -1.421875 26.421875 -1.421875 
Q 22.703125 -1.421875 18.890625 -0.6875 
Q 15.09375 0.046875 10.984375 1.515625 
z
M 30.609375 32.421875 
Q 37.25 32.421875 41.125 36.953125 
Q 45.015625 41.5 45.015625 49.421875 
Q 45.015625 57.28125 41.125 61.84375 
Q 37.25 66.40625 30.609375 66.40625 
Q 23.96875 66.40625 20.09375 61.84375 
Q 16.21875 57.28125 16.21875 49.421875 
Q 16.21875 41.5 20.09375 36.953125 
Q 23.96875 32.421875 30.609375 32.421875 
z
" id="DejaVuSans-57"/>
      <path d="M 25.203125 64.796875 
L 20.21875 38.921875 
L 32.90625 38.921875 
Q 40.375 38.921875 44.984375 43.046875 
Q 49.609375 47.171875 49.609375 53.8125 
Q 49.609375 59.125 46.5 61.953125 
Q 43.40625 64.796875 37.59375 64.796875 
z
M 43.3125 35.015625 
Q 46.4375 34.28125 48.515625 31.390625 
Q 50.59375 28.515625 53.328125 19.921875 
L 59.515625 0 
L 49.125 0 
L 43.40625 18.703125 
Q 41.21875 25.921875 38.328125 28.359375 
Q 35.453125 30.8125 29.5 30.8125 
L 18.609375 30.8125 
L 12.59375 0 
L 2.6875 0 
L 16.890625 72.90625 
L 39.109375 72.90625 
Q 49.21875 72.90625 54.609375 68.328125 
Q 60.015625 63.765625 60.015625 55.171875 
Q 60.015625 47.5625 55.421875 41.984375 
Q 50.828125 36.421875 43.3125 35.015625 
z
" id="DejaVuSans-Oblique-82"/>
      <path d="M 4.890625 31.390625 
L 31.203125 31.390625 
L 31.203125 23.390625 
L 4.890625 23.390625 
z
" id="DejaVuSans-45"/>
     </defs>
     <use transform="translate(0 0.765625)" xlink:href="#DejaVuSans-77"/>
     <use transform="translate(86.279297 0.765625)" xlink:href="#DejaVuSans-83"/>
     <use transform="translate(149.755859 0.765625)" xlink:href="#DejaVuSans-69"/>
     <use transform="translate(212.939453 0.765625)" xlink:href="#DejaVuSans-61"/>
     <use transform="translate(296.728516 0.765625)" xlink:href="#DejaVuSans-49"/>
     <use transform="translate(360.351562 0.765625)" xlink:href="#DejaVuSans-49"/>
     <use transform="translate(423.974609 0.765625)" xlink:href="#DejaVuSans-46"/>
     <use transform="translate(455.761719 0.765625)" xlink:href="#DejaVuSans-54"/>
     <use transform="translate(519.384766 0.765625)" xlink:href="#DejaVuSans-54"/>
     <use transform="translate(583.007812 0.765625)" xlink:href="#DejaVuSans-49"/>
     <use transform="translate(646.630859 0.765625)" xlink:href="#DejaVuSans-51"/>
     <use transform="translate(710.253906 0.765625)" xlink:href="#DejaVuSans-59"/>
     <use transform="translate(743.945312 0.765625)" xlink:href="#DejaVuSans-32"/>
     <use transform="translate(775.732422 0.765625)" xlink:href="#DejaVuSans-77"/>
     <use transform="translate(862.011719 0.765625)" xlink:href="#DejaVuSans-65"/>
     <use transform="translate(930.419922 0.765625)" xlink:href="#DejaVuSans-69"/>
     <use transform="translate(993.603516 0.765625)" xlink:href="#DejaVuSans-61"/>
     <use transform="translate(1077.392578 0.765625)" xlink:href="#DejaVuSans-49"/>
     <use transform="translate(1141.015625 0.765625)" xlink:href="#DejaVuSans-46"/>
     <use transform="translate(1172.802734 0.765625)" xlink:href="#DejaVuSans-51"/>
     <use transform="translate(1236.425781 0.765625)" xlink:href="#DejaVuSans-49"/>
     <use transform="translate(1300.048828 0.765625)" xlink:href="#DejaVuSans-53"/>
     <use transform="translate(1358.171875 0.765625)" xlink:href="#DejaVuSans-57"/>
     <use transform="translate(1421.794922 0.765625)" xlink:href="#DejaVuSans-59"/>
     <use transform="translate(1455.486328 0.765625)" xlink:href="#DejaVuSans-32"/>
     <use transform="translate(1487.273438 0.765625)" xlink:href="#DejaVuSans-Oblique-82"/>
     <use transform="translate(1563.77263 39.046875)scale(0.7)" xlink:href="#DejaVuSans-50"/>
     <use transform="translate(1611.043138 0.765625)" xlink:href="#DejaVuSans-61"/>
     <use transform="translate(1694.832201 0.765625)" xlink:href="#DejaVuSans-45"/>
     <use transform="translate(1730.916185 0.765625)" xlink:href="#DejaVuSans-48"/>
     <use transform="translate(1794.539232 0.765625)" xlink:href="#DejaVuSans-46"/>
     <use transform="translate(1826.326341 0.765625)" xlink:href="#DejaVuSans-51"/>
     <use transform="translate(1889.949388 0.765625)" xlink:href="#DejaVuSans-51"/>
    </g>
   </g>
  </g>
 </g>
 <defs>
  <clipPath id="pb68ef5b7a7">
   <rect height="217.44" width="217.44" x="112.68" y="34.56"/>
  </clipPath>
 </defs>
</svg>
